<svg width="36" height="36" viewBox="0 0 36 36" fill="none" xmlns="http://www.w3.org/2000/svg">
<path d="M16.3057 25.065L5.51465 12.7305C4.24115 11.2793 5.27615 9 7.2089 9H28.7909C29.2234 8.99963 29.6469 9.12395 30.0107 9.35807C30.3744 9.59219 30.6629 9.92618 30.8417 10.3201C31.0204 10.7139 31.0819 11.151 31.0187 11.5789C30.9554 12.0068 30.7702 12.4074 30.4852 12.7328L19.6942 25.0627C19.483 25.3044 19.2225 25.4981 18.9303 25.6308C18.6381 25.7635 18.3208 25.8322 17.9999 25.8322C17.679 25.8322 17.3617 25.7635 17.0695 25.6308C16.7773 25.4981 16.5168 25.3044 16.3057 25.0627V25.065Z" fill="white"/>
</svg>
