<svg width="35" height="35" viewBox="0 0 35 35" fill="none" xmlns="http://www.w3.org/2000/svg">
<path fill-rule="evenodd" clip-rule="evenodd" d="M30.306 4.69438C30.4079 4.79598 30.4887 4.91667 30.5438 5.04955C30.599 5.18243 30.6274 5.32489 30.6274 5.46875C30.6274 5.61262 30.599 5.75507 30.5438 5.88795C30.4887 6.02083 30.4079 6.14153 30.306 6.24313L6.24353 30.3056C6.03815 30.511 5.7596 30.6264 5.46915 30.6264C5.17871 30.6264 4.90016 30.511 4.69478 30.3056C4.4894 30.1003 4.37402 29.8217 4.37402 29.5313C4.37402 29.2408 4.4894 28.9623 4.69478 28.7569L28.7573 4.69438C28.8589 4.59252 28.9796 4.51171 29.1125 4.45657C29.2453 4.40143 29.3878 4.37305 29.5317 4.37305C29.6755 4.37305 29.818 4.40143 29.9509 4.45657C30.0837 4.51171 30.2044 4.59252 30.306 4.69438Z" fill="black"/>
<path fill-rule="evenodd" clip-rule="evenodd" d="M4.69438 4.69438C4.59252 4.79598 4.51171 4.91667 4.45657 5.04955C4.40143 5.18243 4.37305 5.32489 4.37305 5.46875C4.37305 5.61262 4.40143 5.75507 4.45657 5.88795C4.51171 6.02083 4.59252 6.14153 4.69438 6.24313L28.7569 30.3056C28.9623 30.511 29.2408 30.6264 29.5313 30.6264C29.8217 30.6264 30.1003 30.511 30.3056 30.3056C30.511 30.1003 30.6264 29.8217 30.6264 29.5313C30.6264 29.2408 30.511 28.9623 30.3056 28.7569L6.24313 4.69438C6.14153 4.59252 6.02083 4.51171 5.88795 4.45657C5.75507 4.40143 5.61262 4.37305 5.46875 4.37305C5.32489 4.37305 5.18243 4.40143 5.04955 4.45657C4.91667 4.51171 4.79598 4.59252 4.69438 4.69438Z" fill="black"/>
</svg>
