<svg width="43" height="43" viewBox="0 0 43 43" fill="none" xmlns="http://www.w3.org/2000/svg">
<path d="M41.9385 21.5C41.9385 33.1042 32.656 42.5 21.2193 42.5C9.78251 42.5 0.5 33.1042 0.5 21.5C0.5 9.8958 9.78251 0.5 21.2193 0.5C32.656 0.5 41.9385 9.8958 41.9385 21.5Z" fill="white" stroke="#129E47"/>
<path d="M19.0856 24.7485V14.7033H21.9663V20.2242V20.7815L22.5203 20.7213C23.8701 20.5745 25.1909 19.7356 26.2637 18.5906C27.2601 17.5271 28.0833 16.1578 28.5531 14.7033H31.4481C30.6662 17.9453 28.2593 20.3482 26.5295 21.3619L25.7141 21.8397L26.5679 22.2449C28.3007 23.0675 31.0526 25.1726 32.2922 28.9304H29.0502C28.0153 26.0517 25.6512 23.8087 22.5134 23.4918L21.9632 23.4362V23.9892V28.9272C17.9904 28.9195 14.9187 27.5402 12.8066 25.0567C10.7558 22.6454 9.56491 19.1403 9.39562 14.7002H12.5187C12.7883 21.4736 15.8228 24.5628 18.4626 25.2332L19.0856 25.3914V24.7485Z" fill="#129E47" stroke="#129E47"/>
</svg>
