<svg width="43" height="44" viewBox="0 0 43 44" fill="none" xmlns="http://www.w3.org/2000/svg">
<path d="M42.2227 21.5276C42.2227 33.1476 32.9396 42.5552 21.5034 42.5552C10.0673 42.5552 0.78418 33.1476 0.78418 21.5276C0.78418 9.90755 10.0673 0.5 21.5034 0.5C32.9396 0.5 42.2227 9.90755 42.2227 21.5276Z" fill="white" stroke="#129E47"/>
<path d="M26.8772 16.2402C26.8772 19.2582 24.4541 21.7088 21.494 21.7088C18.5339 21.7088 16.1108 19.2582 16.1108 16.2402C16.1108 13.2221 18.5339 10.7715 21.494 10.7715C24.4512 10.7715 26.8772 13.2223 26.8772 16.2402ZM24.435 16.237C24.435 14.6021 23.1269 13.2606 21.494 13.2606C19.8647 13.2606 18.5531 14.6017 18.5531 16.237C18.5531 17.8719 19.8612 19.2134 21.494 19.2134C23.1234 19.2134 24.435 17.8723 24.435 16.237Z" fill="#129E47" stroke="#129E47"/>
<path d="M23.7697 26.5804L22.8942 26.7823L23.5274 27.4199L26.847 30.7625C26.8472 30.7627 26.8474 30.7629 26.8476 30.7631C27.3299 31.2531 27.3297 32.0473 26.847 32.537C26.368 33.0228 25.5971 33.0228 25.1182 32.537L21.875 29.2466L21.5189 28.8853L21.1628 29.2466L17.9196 32.537L17.9195 32.5369L17.9116 32.5452C17.6862 32.7847 17.3691 32.9053 17.0537 32.9053C16.7591 32.9053 16.4437 32.7801 16.1829 32.5321C15.7048 32.0418 15.7064 31.2508 16.1877 30.7625L19.4838 27.4185L20.1114 26.7819L19.2404 26.5804C18.0936 26.3152 16.9819 25.8575 15.9759 25.2062L15.9759 25.2061L15.9707 25.2029C15.3867 24.8348 15.2146 24.0557 15.5806 23.4717L15.5806 23.4717L15.5833 23.4673C15.9475 22.8725 16.7059 22.7068 17.2709 23.0712L17.2732 23.0727C19.8435 24.71 23.1684 24.7104 25.7361 23.073C26.3122 22.7092 27.0606 22.8854 27.4281 23.4699C27.7928 24.0655 27.6099 24.8341 27.0356 25.2051C26.0109 25.8588 24.9168 26.3157 23.7697 26.5804Z" fill="#129E47" stroke="#129E47"/>
</svg>
