<svg width="43" height="44" viewBox="0 0 43 44" fill="none" xmlns="http://www.w3.org/2000/svg">
<path d="M42.5 21.5276C42.5 33.1477 33.2169 42.5552 21.7808 42.5552C10.3446 42.5552 1.06152 33.1477 1.06152 21.5276C1.06152 9.90755 10.3446 0.5 21.7808 0.5C33.2169 0.5 42.5 9.90755 42.5 21.5276Z" fill="white" stroke="#129E47"/>
<path d="M31.7667 16.1847L31.767 16.1857C31.9822 16.9985 32.096 18.2937 32.1536 19.4213C32.1821 19.9776 32.1963 20.4808 32.2034 20.8449C32.207 21.0268 32.2087 21.1738 32.2096 21.275C32.2101 21.3255 32.2103 21.3647 32.2104 21.391L32.2105 21.4207L32.2105 21.428L32.2105 21.4297V21.4301V21.4301V21.4302V21.4302V21.4305L32.2105 21.4323L32.2105 21.4396L32.2104 21.4693C32.2103 21.4956 32.2101 21.5346 32.2096 21.5852C32.2087 21.6863 32.207 21.8331 32.2034 22.0149C32.1963 22.3788 32.1821 22.8816 32.1536 23.4378C32.096 24.5649 31.9822 25.8602 31.7669 26.6748L31.7667 26.6756C31.5596 27.464 30.9461 28.0835 30.1764 28.2916L30.1756 28.2918C29.7991 28.3942 29.093 28.4796 28.2029 28.5455C27.327 28.6104 26.3145 28.6539 25.3508 28.683C24.3879 28.7121 23.4779 28.7266 22.8083 28.7339C22.4736 28.7375 22.1993 28.7393 22.0087 28.7402C21.9134 28.7407 21.8391 28.7409 21.7887 28.741L21.7314 28.7411L21.7169 28.7411L21.7133 28.7411H21.7124H21.7122L21.7122 29.2411L21.7121 28.7411H21.7119H21.7111L21.7075 28.7411L21.693 28.7411L21.6356 28.741C21.5852 28.7409 21.5109 28.7407 21.4157 28.7402C21.2251 28.7393 20.9508 28.7375 20.6161 28.7339C19.9465 28.7266 19.0365 28.7121 18.0736 28.683C17.1099 28.6539 16.0973 28.6104 15.2215 28.5455C14.3314 28.4796 13.6252 28.3942 13.2487 28.2918L13.248 28.2916C12.4783 28.0835 11.8647 27.464 11.6577 26.6756L11.6575 26.6748C11.4422 25.8602 11.3283 24.5649 11.2707 23.4378C11.2423 22.8816 11.2281 22.3788 11.221 22.0149C11.2174 21.8331 11.2156 21.6863 11.2147 21.5852C11.2143 21.5346 11.2141 21.4956 11.214 21.4693L11.2139 21.4396L11.2139 21.4323L11.2139 21.4305L11.2139 21.4302V21.4302V21.4301V21.4301V21.4301L11.2139 21.4297L11.2139 21.428L11.2139 21.4207L11.214 21.391C11.2141 21.3647 11.2143 21.3256 11.2147 21.2751C11.2156 21.174 11.2174 21.0272 11.221 20.8454C11.2281 20.4815 11.2423 19.9786 11.2707 19.4225C11.3283 18.2953 11.4422 17 11.6575 16.1855L11.6577 16.1847C11.8647 15.3962 12.4783 14.7768 13.248 14.5687L13.2487 14.5685C13.6252 14.4661 14.3314 14.3807 15.2215 14.3147C16.0973 14.2499 17.1099 14.2064 18.0736 14.1773C19.0365 14.1482 19.9465 14.1337 20.6161 14.1264C20.9508 14.1228 21.2251 14.121 21.4157 14.12C21.5109 14.1196 21.5852 14.1194 21.6356 14.1193L21.693 14.1192L21.7075 14.1191L21.7111 14.1191L21.7119 14.1191H21.7121L21.7122 13.6191L21.7122 14.1191H21.7124L21.7133 14.1191L21.7169 14.1191L21.7314 14.1192L21.7887 14.1193C21.8391 14.1194 21.9134 14.1196 22.0087 14.12C22.1993 14.121 22.4736 14.1228 22.8083 14.1264C23.4779 14.1337 24.3879 14.1482 25.3508 14.1773C26.3145 14.2064 27.327 14.2499 28.2029 14.3147C29.093 14.3807 29.7991 14.4661 30.1756 14.5685L30.1764 14.5687C30.9461 14.7768 31.5596 15.3962 31.7667 16.1847ZM19.0138 24.7741V25.6464L19.7664 25.2056L25.4817 21.8584L26.2184 21.427L25.4817 20.9955L19.7664 17.6484L19.0138 17.2076V18.0799V24.7741Z" fill="#129E47" stroke="#129E47"/>
</svg>
