<svg width="196" height="45" viewBox="0 0 196 45" fill="none" xmlns="http://www.w3.org/2000/svg">
<path d="M0.773438 25V23.1953L2.63672 22.8438V10.1055L0.773438 9.75391V7.9375H7.45312V9.75391L5.58984 10.1055V15.4258H13.0547V10.1055L11.1914 9.75391V7.9375H13.0547H15.9961H17.8594V9.75391L15.9961 10.1055V22.8438L17.8594 23.1953V25H11.1914V23.1953L13.0547 22.8438V17.7227H5.58984V22.8438L7.45312 23.1953V25H0.773438ZM25.3359 25.2461C24.1172 25.2461 23.0703 24.9727 22.1953 24.4258C21.3203 23.8789 20.6484 23.1211 20.1797 22.1523C19.7109 21.1758 19.4766 20.0547 19.4766 18.7891V18.543C19.4766 17.2852 19.7109 16.1719 20.1797 15.2031C20.6484 14.2344 21.3203 13.4727 22.1953 12.918C23.0703 12.3633 24.1094 12.0859 25.3125 12.0859C26.5312 12.0859 27.5781 12.3633 28.4531 12.918C29.3281 13.4648 30 14.2227 30.4688 15.1914C30.9375 16.1602 31.1719 17.2773 31.1719 18.543V18.7891C31.1719 20.0547 30.9375 21.1758 30.4688 22.1523C30 23.1211 29.3281 23.8789 28.4531 24.4258C27.5859 24.9727 26.5469 25.2461 25.3359 25.2461ZM25.3359 22.9727C25.9922 22.9727 26.5312 22.7969 26.9531 22.4453C27.3828 22.0859 27.7031 21.5938 27.9141 20.9688C28.125 20.3359 28.2305 19.6094 28.2305 18.7891V18.543C28.2305 17.7305 28.125 17.0117 27.9141 16.3867C27.7031 15.7617 27.3828 15.2695 26.9531 14.9102C26.5234 14.5508 25.9766 14.3711 25.3125 14.3711C24.6641 14.3711 24.125 14.5508 23.6953 14.9102C23.2656 15.2695 22.9453 15.7617 22.7344 16.3867C22.5312 17.0117 22.4297 17.7305 22.4297 18.543V18.7891C22.4297 19.6094 22.5312 20.3359 22.7344 20.9688C22.9453 21.5938 23.2656 22.0859 23.6953 22.4453C24.1328 22.7969 24.6797 22.9727 25.3359 22.9727ZM33.1758 25V23.1953L35.0508 22.8438V14.4883L33.1758 14.1367V12.3203H35.0508H40.207C41.8945 12.3203 43.2031 12.6133 44.1328 13.1992C45.0625 13.7852 45.5273 14.6523 45.5273 15.8008C45.5273 16.4102 45.3438 16.9492 44.9766 17.418C44.6094 17.8789 44.0664 18.2344 43.3477 18.4844C44.2617 18.6797 44.9492 19.043 45.4102 19.5742C45.8711 20.0977 46.1016 20.7148 46.1016 21.4258C46.1016 22.5977 45.6602 23.4883 44.7773 24.0977C43.9023 24.6992 42.6523 25 41.0273 25H33.1758ZM37.9922 22.75H41.0156C41.7344 22.75 42.2695 22.6172 42.6211 22.3516C42.9727 22.0781 43.1484 21.6836 43.1484 21.168C43.1484 20.668 42.9766 20.2812 42.6328 20.0078C42.2891 19.7344 41.7539 19.5977 41.0273 19.5977H37.9922V22.75ZM37.9922 17.5703H40.2656C41.0469 17.5625 41.625 17.4375 42 17.1953C42.3828 16.9453 42.5742 16.5781 42.5742 16.0938C42.5742 15.0859 41.793 14.582 40.2305 14.582H37.9922V17.5703ZM52.043 25.2461C50.7539 25.2461 49.75 24.9141 49.0312 24.25C48.3125 23.5859 47.9531 22.6719 47.9531 21.5078C47.9531 20.7109 48.1719 20.0117 48.6094 19.4102C49.0469 18.8086 49.6875 18.3398 50.5312 18.0039C51.375 17.6602 52.3984 17.4883 53.6016 17.4883H55.5352V16.4219C55.5352 15.75 55.332 15.2148 54.9258 14.8164C54.5273 14.418 53.9453 14.2188 53.1797 14.2188C52.7422 14.2188 52.3555 14.2734 52.0195 14.3828C51.6836 14.4844 51.3828 14.6328 51.1172 14.8281L50.8477 16.5391H48.6797L48.6562 13.4102C49.2812 13.0039 49.9766 12.6836 50.7422 12.4492C51.5078 12.207 52.3594 12.0859 53.2969 12.0859C54.9062 12.0859 56.1719 12.4648 57.0938 13.2227C58.0234 13.9727 58.4883 15.0508 58.4883 16.457V22.0469C58.4883 22.2188 58.4883 22.3867 58.4883 22.5508C58.4961 22.7148 58.5078 22.875 58.5234 23.0312L59.8125 23.1953V25H55.957C55.8789 24.7266 55.8047 24.4609 55.7344 24.2031C55.6719 23.9453 55.625 23.6875 55.5938 23.4297C55.1719 23.9609 54.6602 24.3984 54.0586 24.7422C53.4648 25.0781 52.793 25.2461 52.043 25.2461ZM52.7109 22.9609C53.3047 22.9609 53.8594 22.8242 54.375 22.5508C54.8906 22.2695 55.2773 21.918 55.5352 21.4961V19.375H53.5664C52.6836 19.375 52.0156 19.582 51.5625 19.9961C51.1172 20.4023 50.8945 20.8789 50.8945 21.4258C50.8945 21.918 51.0508 22.2969 51.3633 22.5625C51.6758 22.8281 52.125 22.9609 52.7109 22.9609ZM61.3594 25V23.1953L62.8477 22.9727L64.6992 19.832C63.9414 19.5039 63.3594 19.043 62.9531 18.4492C62.5547 17.8477 62.3555 17.1602 62.3555 16.3867C62.3555 15.5898 62.5664 14.8867 62.9883 14.2773C63.4102 13.6602 64.0078 13.1797 64.7812 12.8359C65.5625 12.4922 66.4844 12.3203 67.5469 12.3203H74.8945V14.1367L73.0312 14.4883V22.8438L74.8945 23.1953V25H68.4375V23.1953L70.0898 22.8438V20.3594H67.6992L65.1211 25H61.3594ZM67.418 18.25H70.0898V14.582H67.5469C66.8203 14.582 66.2656 14.7734 65.8828 15.1562C65.5 15.5312 65.3086 15.9648 65.3086 16.457C65.3086 16.9414 65.4883 17.3633 65.8477 17.7227C66.207 18.0742 66.7305 18.25 67.418 18.25ZM82.8164 25V23.1953L84.6914 22.8438V14.4883L82.8164 14.1367V12.3203H89.3438V14.1367L87.6328 14.4883V17.3711H88.8281L91.0312 14.2422C91.5078 13.5391 91.9922 13.0078 92.4844 12.6484C92.9766 12.2891 93.5547 12.1094 94.2188 12.1094C94.625 12.1094 94.9688 12.1602 95.25 12.2617C95.5391 12.3633 95.832 12.5078 96.1289 12.6953L95.6602 14.7344C95.3945 14.6719 95.2266 14.6367 95.1562 14.6289C95.0938 14.6133 94.9922 14.6055 94.8516 14.6055C94.5781 14.6055 94.3086 14.7031 94.043 14.8984C93.7852 15.0859 93.5586 15.3203 93.3633 15.6016L91.3828 18.3203L94.7578 22.9023L96.4453 23.1953V25H92.4375L89.0156 19.9844H87.6328V22.8438L89.3438 23.1953V25H82.8164ZM97.582 29.875V28.0586L99.293 27.707V14.4883L97.4297 14.1367V12.3203H101.941L102.129 13.8203C102.52 13.2656 102.996 12.8398 103.559 12.543C104.121 12.2383 104.785 12.0859 105.551 12.0859C106.582 12.0859 107.465 12.3672 108.199 12.9297C108.934 13.4922 109.492 14.2773 109.875 15.2852C110.266 16.293 110.461 17.4727 110.461 18.8242V19.0703C110.461 20.3047 110.266 21.3867 109.875 22.3164C109.484 23.2383 108.922 23.957 108.188 24.4727C107.461 24.9883 106.582 25.2461 105.551 25.2461C104.824 25.2461 104.188 25.1211 103.641 24.8711C103.094 24.6133 102.625 24.2383 102.234 23.7461V27.707L104.039 28.0586V29.875H97.582ZM104.66 22.9727C105.629 22.9727 106.344 22.6172 106.805 21.9062C107.273 21.1875 107.508 20.2422 107.508 19.0703V18.8242C107.508 17.9492 107.402 17.1836 107.191 16.5273C106.988 15.8633 106.672 15.3477 106.242 14.9805C105.82 14.6055 105.285 14.418 104.637 14.418C104.09 14.418 103.613 14.543 103.207 14.793C102.809 15.0352 102.484 15.3789 102.234 15.8242V21.6367C102.484 22.0664 102.809 22.3984 103.207 22.6328C103.605 22.8594 104.09 22.9727 104.66 22.9727ZM118.559 25.2461C117.363 25.2461 116.32 24.9805 115.43 24.4492C114.547 23.9102 113.859 23.168 113.367 22.2227C112.883 21.2773 112.641 20.1953 112.641 18.9766V18.4844C112.641 17.25 112.879 16.1523 113.355 15.1914C113.84 14.2227 114.504 13.4648 115.348 12.918C116.191 12.3633 117.152 12.0859 118.23 12.0859C119.379 12.0859 120.34 12.3164 121.113 12.7773C121.895 13.2383 122.484 13.8945 122.883 14.7461C123.281 15.5898 123.48 16.6055 123.48 17.793V19.4805H115.699L115.676 19.5391C115.707 20.2031 115.844 20.793 116.086 21.3086C116.336 21.8242 116.688 22.2305 117.141 22.5273C117.602 22.8242 118.16 22.9727 118.816 22.9727C119.504 22.9727 120.129 22.8789 120.691 22.6914C121.254 22.5039 121.773 22.2383 122.25 21.8945L123.176 23.7461C122.676 24.168 122.039 24.5234 121.266 24.8125C120.492 25.1016 119.59 25.2461 118.559 25.2461ZM115.746 17.4062H120.656V17.1016C120.656 16.5469 120.57 16.0625 120.398 15.6484C120.234 15.2266 119.973 14.8984 119.613 14.6641C119.262 14.4297 118.812 14.3125 118.266 14.3125C117.789 14.3125 117.371 14.4453 117.012 14.7109C116.652 14.9766 116.363 15.3398 116.145 15.8008C115.934 16.2539 115.789 16.7695 115.711 17.3477L115.746 17.4062ZM125.414 25V23.1953L127.277 22.8438V14.4883L125.414 14.1367V12.3203H139.84V14.1367L137.988 14.4883V22.8438L139.84 23.1953V25H133.383V23.1953L135.035 22.8438V14.6172H130.23V22.8438L131.883 23.1953V25H125.414ZM147.562 25.2461C146.344 25.2461 145.297 24.9727 144.422 24.4258C143.547 23.8789 142.875 23.1211 142.406 22.1523C141.938 21.1758 141.703 20.0547 141.703 18.7891V18.543C141.703 17.2852 141.938 16.1719 142.406 15.2031C142.875 14.2344 143.547 13.4727 144.422 12.918C145.297 12.3633 146.336 12.0859 147.539 12.0859C148.758 12.0859 149.805 12.3633 150.68 12.918C151.555 13.4648 152.227 14.2227 152.695 15.1914C153.164 16.1602 153.398 17.2773 153.398 18.543V18.7891C153.398 20.0547 153.164 21.1758 152.695 22.1523C152.227 23.1211 151.555 23.8789 150.68 24.4258C149.812 24.9727 148.773 25.2461 147.562 25.2461ZM147.562 22.9727C148.219 22.9727 148.758 22.7969 149.18 22.4453C149.609 22.0859 149.93 21.5938 150.141 20.9688C150.352 20.3359 150.457 19.6094 150.457 18.7891V18.543C150.457 17.7305 150.352 17.0117 150.141 16.3867C149.93 15.7617 149.609 15.2695 149.18 14.9102C148.75 14.5508 148.203 14.3711 147.539 14.3711C146.891 14.3711 146.352 14.5508 145.922 14.9102C145.492 15.2695 145.172 15.7617 144.961 16.3867C144.758 17.0117 144.656 17.7305 144.656 18.543V18.7891C144.656 19.6094 144.758 20.3359 144.961 20.9688C145.172 21.5938 145.492 22.0859 145.922 22.4453C146.359 22.7969 146.906 22.9727 147.562 22.9727ZM161.227 25.2461C160.039 25.2461 159.008 24.9766 158.133 24.4375C157.266 23.8906 156.594 23.1406 156.117 22.1875C155.648 21.2266 155.414 20.1211 155.414 18.8711V18.4609C155.414 17.2344 155.648 16.1406 156.117 15.1797C156.586 14.2188 157.254 13.4648 158.121 12.918C158.996 12.3633 160.027 12.0859 161.215 12.0859C162.301 12.0859 163.246 12.2617 164.051 12.6133C164.855 12.957 165.516 13.3867 166.031 13.9023L166.043 17.2891H163.793L163.359 15.0508C163.141 14.8242 162.863 14.6445 162.527 14.5117C162.191 14.3711 161.824 14.3008 161.426 14.3008C160.777 14.3008 160.223 14.4766 159.762 14.8281C159.309 15.1797 158.961 15.668 158.719 16.293C158.484 16.9102 158.367 17.6328 158.367 18.4609V18.8711C158.367 19.7617 158.488 20.5117 158.73 21.1211C158.973 21.7305 159.309 22.1914 159.738 22.5039C160.176 22.8164 160.676 22.9727 161.238 22.9727C161.918 22.9727 162.469 22.7891 162.891 22.4219C163.32 22.0547 163.602 21.5469 163.734 20.8984H166.289L166.324 20.9688C166.23 21.7969 165.984 22.5352 165.586 23.1836C165.195 23.8242 164.641 24.3281 163.922 24.6953C163.211 25.0625 162.312 25.2461 161.227 25.2461ZM170.93 25V23.1953L172.793 22.8438V14.582H170.438L170.285 16.4102H167.941V12.3203H180.656V16.4102H178.301L178.148 14.582H175.746V22.8438L177.598 23.1953V25H170.93ZM190.09 16.5273C191.715 16.5273 192.984 16.9102 193.898 17.6758C194.812 18.4414 195.27 19.4531 195.27 20.7109C195.27 21.9844 194.809 23.0195 193.887 23.8164C192.973 24.6055 191.707 25 190.09 25H182.566V23.1953L184.441 22.8438V14.4883L182.566 14.1367V12.3203H189.258V14.1367L187.383 14.4883V16.5273H190.09ZM190.09 22.7266C190.848 22.7266 191.41 22.543 191.777 22.1758C192.145 21.8086 192.328 21.3359 192.328 20.7578C192.328 20.1797 192.145 19.6953 191.777 19.3047C191.41 18.9141 190.848 18.7188 190.09 18.7188H187.383V22.7266H190.09Z" fill="#A38C54"/>
<path d="M0.527344 41V40.0771L1.72119 39.8721V34.2104L0.527344 34.0054V33.0752H6.99463V35.1187H6.05713L5.95459 34.2178H3.16406V39.8721L4.35791 40.0771V41H0.527344ZM11.7114 41.1538C10.979 41.1538 10.3467 40.9829 9.81445 40.6411C9.28711 40.2944 8.87939 39.8184 8.59131 39.2129C8.30322 38.6025 8.15918 37.9067 8.15918 37.1255V36.9644C8.15918 36.1831 8.30322 35.4897 8.59131 34.8843C8.87939 34.2739 9.28711 33.7954 9.81445 33.4487C10.3467 33.1021 10.9741 32.9287 11.6968 32.9287C12.4292 32.9287 13.0591 33.1021 13.5864 33.4487C14.1187 33.7954 14.5288 34.2715 14.8169 34.877C15.105 35.4824 15.249 36.1782 15.249 36.9644V37.1255C15.249 37.9116 15.105 38.6099 14.8169 39.2202C14.5288 39.8257 14.1211 40.2993 13.5938 40.6411C13.0664 40.9829 12.439 41.1538 11.7114 41.1538ZM11.7114 40.0259C12.1704 40.0259 12.5537 39.9014 12.8613 39.6523C13.1738 39.3984 13.4082 39.0542 13.5645 38.6196C13.7256 38.1802 13.8062 37.6821 13.8062 37.1255V36.9644C13.8062 36.4077 13.7256 35.9121 13.5645 35.4775C13.4082 35.0381 13.1738 34.6938 12.8613 34.4448C12.5488 34.1909 12.1606 34.064 11.6968 34.064C11.2378 34.064 10.8521 34.1909 10.5396 34.4448C10.2271 34.6938 9.99268 35.0381 9.83643 35.4775C9.68018 35.9121 9.60205 36.4077 9.60205 36.9644V37.1255C9.60205 37.6821 9.68018 38.1802 9.83643 38.6196C9.99268 39.0542 10.2271 39.3984 10.5396 39.6523C10.8569 39.9014 11.2476 40.0259 11.7114 40.0259ZM20.3979 41.1538C19.6802 41.1538 19.0552 40.9878 18.5229 40.6558C17.9907 40.3188 17.5781 39.8525 17.2852 39.2568C16.9922 38.6611 16.8457 37.9727 16.8457 37.1914V36.8838C16.8457 36.1318 16.9873 35.458 17.2705 34.8623C17.5537 34.2666 17.9614 33.7954 18.4937 33.4487C19.0259 33.1021 19.6606 32.9287 20.3979 32.9287C21.0376 32.9287 21.5967 33.0337 22.0752 33.2437C22.5586 33.4536 22.9639 33.7417 23.291 34.1079L23.3276 36.0122H22.1997L21.9507 34.6279C21.7847 34.457 21.5771 34.3203 21.3281 34.2178C21.0791 34.1152 20.7861 34.064 20.4492 34.064C20.0195 34.064 19.6411 34.1909 19.314 34.4448C18.9917 34.6987 18.7402 35.0381 18.5596 35.4629C18.3789 35.8877 18.2886 36.3613 18.2886 36.8838V37.1914C18.2886 37.7676 18.3716 38.2681 18.5376 38.6929C18.7085 39.1177 18.9502 39.4473 19.2627 39.6816C19.5801 39.9111 19.9561 40.0259 20.3906 40.0259C20.8789 40.0259 21.2842 39.8916 21.6064 39.623C21.9287 39.3545 22.1265 38.9858 22.1997 38.5171H23.4961L23.5107 38.561C23.4863 39.0151 23.3521 39.4399 23.1079 39.8354C22.8638 40.231 22.5146 40.5508 22.0605 40.7949C21.6113 41.0342 21.0571 41.1538 20.3979 41.1538ZM26.4844 41V40.0771L27.6782 39.8721V34.1958H26.0083L25.8984 35.4336H24.668V33.0752H32.168V35.4336H30.9302L30.8203 34.1958H29.1211V39.8721L30.3149 40.0771V41H26.4844ZM33.4937 41V40.0771L34.6875 39.8721V34.2104L33.4937 34.0054V33.0752H36.123H37.3169V34.0054L36.123 34.2104V38.6855L36.167 38.7002L39.6606 33.0752H41.1035H42.2974V34.0054L41.1035 34.2104V39.8721L42.2974 40.0771V41H38.4668V40.0771L39.6606 39.8721V35.3896L39.6167 35.375L36.123 41H33.4937ZM43.7183 41V40.0771L44.9121 39.8721V34.2104L43.7183 34.0054V33.0752H47.5488V34.0054L46.355 34.2104V36.5029H49.8779V34.2104L48.6841 34.0054V33.0752H49.8779H51.3281H52.522V34.0054L51.3281 34.2104V39.8721L52.522 40.0771V41H48.6841V40.0771L49.8779 39.8721V37.6309H46.355V39.8721L47.5488 40.0771V41H43.7183ZM53.9429 41V40.0771L55.1367 39.8721V34.2104L53.9429 34.0054V33.0752H56.5723H57.7661V34.0054L56.5723 34.2104V38.6855L56.6162 38.7002L60.1099 33.0752H61.5527H62.7466V34.0054L61.5527 34.2104V39.8721L62.7466 40.0771V41H58.916V40.0771L60.1099 39.8721V35.3896L60.0659 35.375L56.5723 41H53.9429ZM71.1255 43.3511V41H63.9697V40.0771L65.1636 39.8721V34.2104L63.9697 34.0054V33.0752H67.8003V34.0054L66.6064 34.2104V39.8721H70.1367V34.2104L68.9429 34.0054V33.0752H72.7734V34.0054L71.5796 34.2178V39.8721H72.5537L72.4146 43.3511H71.1255ZM76.5381 41.1538C75.7129 41.1538 75.0854 40.9536 74.6558 40.5532C74.2261 40.1479 74.0112 39.5791 74.0112 38.8467C74.0112 38.3438 74.1479 37.9067 74.4214 37.5356C74.6997 37.1597 75.1001 36.8691 75.6226 36.6641C76.145 36.4541 76.77 36.3491 77.4976 36.3491H78.9111V35.5728C78.9111 35.0942 78.7646 34.7231 78.4717 34.4595C78.1836 34.1958 77.7759 34.064 77.2485 34.064C76.9165 34.064 76.6284 34.1055 76.3843 34.1885C76.1401 34.2666 75.918 34.3765 75.7178 34.5181L75.564 35.624H74.4507V33.8076C74.8071 33.5195 75.2222 33.3022 75.6958 33.1558C76.1694 33.0044 76.6943 32.9287 77.2705 32.9287C78.2324 32.9287 78.9868 33.1582 79.5337 33.6172C80.0806 34.0762 80.354 34.7329 80.354 35.5874V39.4033C80.354 39.5059 80.354 39.606 80.354 39.7036C80.3589 39.8013 80.3662 39.8989 80.376 39.9966L81.145 40.0771V41H79.0723C79.0283 40.7852 78.9941 40.5923 78.9697 40.4214C78.9453 40.2505 78.9282 40.0796 78.9185 39.9087C78.6401 40.2651 78.291 40.563 77.8711 40.8022C77.4561 41.0366 77.0117 41.1538 76.5381 41.1538ZM76.7505 39.9453C77.229 39.9453 77.666 39.8306 78.0615 39.6011C78.457 39.3716 78.7402 39.0957 78.9111 38.7734V37.3379H77.4463C76.7822 37.3379 76.2842 37.4966 75.9521 37.814C75.6201 38.1313 75.4541 38.4854 75.4541 38.876C75.4541 39.2227 75.5615 39.4888 75.7764 39.6743C75.9912 39.855 76.3159 39.9453 76.7505 39.9453Z" fill="#A38C54"/>
</svg>
