<svg width="171" height="30" viewBox="0 0 171 30" fill="none" xmlns="http://www.w3.org/2000/svg">
<g clip-path="url(#clip0_333_14348)">
<path d="M72.7769 0C63.3027 0 58.4157 5.82015 58.4157 14.3739C58.2422 18.064 59.464 21.6843 61.8383 24.515C67.8898 20.9877 73.7119 16.314 77.1346 10.6173L75.2645 9.45329C72.476 12.9678 68.8894 15.7671 64.8024 17.6191C64.0851 16.1599 63.8692 14.505 64.1881 12.9107C64.5071 11.3165 65.3431 9.87188 66.5666 8.80074C69.5501 6.6783 73.0333 5.36572 76.6759 4.99121C78.4402 4.69139 79.8163 4.72666 80.3809 7.30161C81.2278 11.217 81.3689 16.5256 79.093 20C78.0404 21.5338 76.5414 22.7068 74.7992 23.3599C73.057 24.013 71.1561 24.1145 69.3542 23.6508C68.2129 24.9523 66.9995 26.1888 65.7198 27.3545C67.9456 28.3158 70.3528 28.7851 72.7769 28.7302C82.251 28.7302 87.1381 22.9277 87.1381 14.3915C87.1381 5.85538 82.2863 0 72.7769 0Z" fill="white"/>
<path d="M26.7994 1.14631H23.9236C17.8015 1.14631 12.5793 3.15689 9.52708 11.7283L9.05074 13.0863C5.7339 22.91 3.54619 25.0087 0 25.9082L0.7057 29.9822C5.36339 29.559 10.1799 29.0652 14.5553 16.8253L16.4431 11.6401C18.3485 7.0722 19.8834 5.74946 23.359 5.74946H24.0294V27.8306H30.6808V4.90287C30.7442 4.38347 30.6864 3.85647 30.5118 3.36316C30.3372 2.86986 30.0506 2.42371 29.6745 2.05973C29.2985 1.69576 28.8431 1.42385 28.3443 1.26536C27.8454 1.10688 27.3166 1.06614 26.7994 1.14631Z" fill="white"/>
<path d="M41.4951 16.1904H54.9036V11.7459H41.4951V5.76711H55.6093V1.14631H38.7252C38.208 1.06614 37.6791 1.10688 37.1803 1.26536C36.6814 1.42385 36.2261 1.69576 35.8501 2.05973C35.474 2.42371 35.1874 2.86986 35.0128 3.36316C34.8382 3.85646 34.7804 4.38346 34.8438 4.90287V27.8306H56.5444V22.8394H41.4951V16.1904Z" fill="white"/>
<path d="M170.128 1.25206V1.14624H147.475V5.76704H155.537V27.8658H162.206V5.76704H167.887C168.224 5.77948 168.56 5.71253 168.866 5.57161C169.173 5.43069 169.442 5.21969 169.652 4.95572C169.98 4.40386 170.192 3.79038 170.274 3.1533C170.356 2.51621 170.306 1.86912 170.128 1.25206Z" fill="white"/>
<path d="M137.631 3.42285L126.94 16.1389L125.334 18.5198L125.599 15.9097V1.28883C124.91 1.1295 124.206 1.04667 123.499 1.04189C122.441 1.04189 118.93 1.28881 118.93 4.56923V27.6733C119.562 27.8499 120.214 27.9448 120.87 27.9555C121.77 27.9069 122.647 27.6526 123.433 27.2124C124.219 26.7721 124.893 26.1575 125.405 25.4158L135.99 13.0701L137.666 10.6363L137.49 13.4229V27.832H144.159V1.32409C143.498 1.13951 142.816 1.03881 142.13 1.02429C141.243 1.03617 140.372 1.26009 139.589 1.67738C138.806 2.09466 138.135 2.69315 137.631 3.42285Z" fill="white"/>
<path d="M109.828 13.7922H109.44C111.363 13.1925 114.239 12.0285 114.239 8.27189C114.239 3.45707 111.239 1.21721 104.817 1.21721H94.4786C93.9613 1.13705 93.4325 1.17784 92.9337 1.33632C92.4348 1.49481 91.9795 1.76667 91.6034 2.13064C91.2274 2.49462 90.9408 2.94077 90.7662 3.43407C90.5917 3.92737 90.5338 4.45443 90.5972 4.97384V27.9015H105.735C116.179 27.9015 116.179 22.0638 116.179 20.1414C116.109 16.085 112.457 14.1096 109.828 13.7922ZM97.2485 5.76751H105.752C106.153 5.7554 106.551 5.82499 106.924 5.97204C107.296 6.11909 107.635 6.3405 107.919 6.62276C108.203 6.90501 108.426 7.24215 108.575 7.61364C108.725 7.98512 108.797 8.38315 108.787 8.78337C108.834 9.19004 108.787 9.60207 108.65 9.98787C108.513 10.3737 108.29 10.723 107.997 11.0091C107.704 11.2951 107.349 11.5103 106.96 11.6381C106.571 11.7659 106.158 11.8029 105.752 11.7463H97.2485V5.76751ZM106.211 22.8751H97.2485V16.1908H106.07C106.55 16.1404 107.036 16.196 107.493 16.3539C107.95 16.5118 108.366 16.768 108.713 17.1045C109.059 17.441 109.328 17.8495 109.499 18.3011C109.671 18.7527 109.741 19.2365 109.704 19.7181C109.563 22.346 107.711 22.8574 106.141 22.8751H106.211Z" fill="white"/>
</g>
<defs>
<clipPath id="clip0_333_14348">
<rect width="170.27" height="30" fill="white"/>
</clipPath>
</defs>
</svg>
