<svg width="216" height="40" viewBox="0 0 216 40" fill="none" xmlns="http://www.w3.org/2000/svg">
<g clip-path="url(#clip0_609_11943)">
<path d="M92.1841 0.298828C80.1835 0.298828 73.9932 7.67102 73.9932 18.5058C73.7735 23.1799 75.3212 27.7656 78.3286 31.3512C85.9938 26.8832 93.3685 20.9632 97.7039 13.7474L95.3351 12.273C91.8029 16.7247 87.26 20.2705 82.0831 22.6163C81.1745 20.768 80.901 18.6718 81.3051 16.6524C81.7091 14.633 82.768 12.8032 84.3178 11.4464C88.0969 8.75801 92.5089 7.09541 97.1229 6.62103C99.3576 6.24125 101.101 6.28593 101.816 9.54754C102.889 14.507 103.067 21.2312 100.184 25.6321C98.8512 27.5749 96.9525 29.0608 94.7457 29.888C92.539 30.7153 90.1311 30.8439 87.8487 30.2565C86.4031 31.905 84.8661 33.4713 83.2451 34.9479C86.0644 36.1656 89.1137 36.76 92.1841 36.6904C104.185 36.6904 110.375 29.3406 110.375 18.5281C110.375 7.71565 104.229 0.298828 92.1841 0.298828Z" fill="#129E47"/>
<path d="M33.9458 1.74986H30.3032C22.5486 1.74986 15.9337 4.2966 12.0676 15.1537L11.4643 16.8739C7.26295 29.3172 4.49185 31.9756 0 33.1149L0.893886 38.2754C6.79362 37.7392 12.8945 37.1137 18.4367 21.6099L20.8279 15.042C23.2414 9.256 25.1856 7.58052 29.5881 7.58052H30.4373V35.5499H38.8623V6.50818C38.9427 5.85027 38.8694 5.18273 38.6482 4.55788C38.4271 3.93303 38.0641 3.36791 37.5877 2.90687C37.1114 2.44584 36.5346 2.10142 35.9027 1.90067C35.2709 1.69992 34.601 1.64832 33.9458 1.74986Z" fill="#129E47"/>
<path d="M52.5606 20.8057H69.5447V15.176H52.5606V7.60288H70.4386V1.74986H49.0521C48.3969 1.64832 47.727 1.69992 47.0951 1.90067C46.4632 2.10142 45.8865 2.44584 45.4102 2.90687C44.9338 3.36791 44.5708 3.93303 44.3497 4.55788C44.1286 5.18273 44.0553 5.85026 44.1356 6.50818V35.5499H71.623V29.2278H52.5606V20.8057Z" fill="#129E47"/>
<path d="M215.495 1.88403V1.75H186.801V7.60302H197.014V35.5948H205.461V7.60302H212.657C213.084 7.61876 213.509 7.53397 213.897 7.35547C214.285 7.17697 214.626 6.9097 214.892 6.57534C215.308 5.87631 215.577 5.09925 215.68 4.29227C215.784 3.48529 215.721 2.66564 215.495 1.88403Z" fill="#129E47"/>
<path d="M174.333 4.63388L160.79 20.7409L158.757 23.7567L159.092 20.4505V1.93079C158.22 1.72896 157.328 1.62404 156.433 1.618C155.092 1.618 150.645 1.93075 150.645 6.08596V35.3511C151.445 35.5748 152.271 35.695 153.103 35.7085C154.242 35.647 155.353 35.3249 156.348 34.7672C157.344 34.2096 158.198 33.4311 158.846 32.4916L172.255 16.8538L174.378 13.7709L174.154 17.3006V35.5522H182.601V1.97544C181.764 1.74165 180.901 1.6141 180.031 1.5957C178.908 1.61074 177.804 1.89439 176.813 2.42295C175.822 2.95151 174.971 3.70959 174.333 4.63388Z" fill="#129E47"/>
<path d="M139.115 17.7699H138.623C141.059 17.0104 144.702 15.5359 144.702 10.7776C144.702 4.6788 140.903 1.84164 132.768 1.84164H119.673C119.017 1.7401 118.348 1.79177 117.716 1.99251C117.084 2.19326 116.507 2.53762 116.031 2.99865C115.554 3.45969 115.191 4.02481 114.97 4.64966C114.749 5.27451 114.676 5.94211 114.756 6.60003V35.6418H133.93C147.16 35.6418 147.16 28.2473 147.16 25.8123C147.071 20.6741 142.445 18.1721 139.115 17.7699ZM123.181 7.60535H133.953C134.46 7.59002 134.965 7.67816 135.436 7.86442C135.908 8.05068 136.337 8.33114 136.697 8.68866C137.057 9.04618 137.34 9.47323 137.529 9.94378C137.718 10.4143 137.809 10.9185 137.797 11.4254C137.856 11.9405 137.797 12.4625 137.623 12.9511C137.45 13.4398 137.167 13.8823 136.796 14.2446C136.425 14.607 135.975 14.8795 135.483 15.0414C134.99 15.2033 134.466 15.2502 133.953 15.1785H123.181V7.60535ZM134.534 29.2749H123.181V20.8082H134.355C134.964 20.7443 135.579 20.8148 136.157 21.0148C136.736 21.2148 137.263 21.5393 137.702 21.9655C138.141 22.3917 138.482 22.9092 138.699 23.4812C138.916 24.0533 139.004 24.666 138.959 25.2761C138.78 28.6048 136.433 29.2526 134.444 29.2749H134.534Z" fill="#129E47"/>
</g>
<rect x="0.5" y="0.798828" width="215" height="38" stroke="white"/>
<defs>
<clipPath id="clip0_609_11943">
<rect y="0.298828" width="216" height="39" fill="white"/>
</clipPath>
</defs>
</svg>
