<svg width="97" height="80" viewBox="0 0 97 80" fill="none" xmlns="http://www.w3.org/2000/svg">
<path d="M48.3381 14.8792V20.413L54.7461 22.9032H58.6467M58.6467 22.9032C60.3183 23.4566 60.3183 24.8401 60.3183 24.8401C60.3183 24.8401 60.3183 26.5002 58.6467 27.0536H53.9103C53.9103 27.0536 48.8954 28.7137 46.3879 28.9904C43.8804 29.2671 41.3673 28.533 40.2585 27.8837C38.5869 27.8837 37.1938 27.8837 37.1938 27.8837C37.1938 27.8837 38.0296 38.9513 36.0794 46.422C43.5399 42.6845 50.0098 41.9949 55.582 46.422C59.7521 34.4869 75.4143 29.4811 84 35.0776M58.6467 22.9032L59.7611 19.8596C60.409 17.6073 60.0632 16.5457 58.6467 14.8792L51.1242 6.85512C48.3992 4.83422 46.856 3.75876 42.766 6.85512C33.2749 11.6882 23.8206 19.3062 21.0345 23.7333C18.2485 28.1604 16.0321 40.6607 14.0693 54.446C12.6312 57.8916 12.4008 61.0581 14.9052 63.0235C23.7437 67.3917 28.8024 69.5651 38.3083 72.1543C55.9138 74.3688 65.8899 74.6324 84 72.1543M50.2884 16.816L52.5173 19.0295M52.5173 19.0295H55.3034M52.5173 19.0295L51.4028 20.1363" stroke="black"/>
</svg>
