<svg width="97" height="80" viewBox="0 0 97 80" fill="none" xmlns="http://www.w3.org/2000/svg">
<g clip-path="url(#clip0_611_10661)">
<path d="M34.3422 61.6545L42.352 61.3286M42.352 61.3286L57.1393 60.7269C61.0401 60.7269 62.0182 54.8602 57.5117 53.6982M42.352 61.3286L50.9779 66.9107L74.083 51.4511M57.5117 53.6982C57.3914 53.6672 57.2673 53.6396 57.1393 53.6155L31.8777 50.2144C28.0499 49.8167 25.9055 49.5285 22.0195 51.1419L6 57.0166V76.1865C10.6154 70.4596 13.8114 70.1395 19.8631 71.2394L41.4278 78.3508C46.4829 80.2567 47.5892 80.8243 51.594 78.3508L81.7847 55.7798C85.4815 51.7603 79.9363 46.8132 75.9314 50.2144L74.083 51.4511M57.5117 53.6982L67.6136 49.2867C70.7945 48.1611 72.1852 48.7126 74.083 51.4511" stroke="black"/>
<path d="M25.929 25.2018L25.9296 25.1903V25.1788C25.9296 19.5624 27.5014 14.9026 30.5393 11.6508C33.5723 8.40441 38.1238 6.5 44.2111 6.5C50.321 6.5 54.8722 8.41586 57.8994 11.6706C60.9319 14.931 62.4926 19.5969 62.4926 25.2023C62.4926 30.8067 60.921 35.4545 57.8833 38.6974C54.8505 41.9352 50.2989 43.834 44.2111 43.834V43.8338L44.1995 43.8341C41.3559 43.8999 38.53 43.3895 35.8849 42.3352C37.2918 40.9944 38.6358 39.5864 39.9124 38.1161C42.279 38.6727 44.7565 38.5068 47.0345 37.6355C49.4103 36.7269 51.4527 35.0955 52.8861 32.9646L52.8862 32.9646L52.892 32.9556C54.4425 30.5406 55.1534 27.5176 55.3439 24.4657C55.5347 21.4092 55.206 18.2864 54.6447 15.6387L54.6444 15.6373C54.2599 13.8478 53.5669 12.7966 52.5343 12.3103C51.5501 11.8467 50.3827 11.967 49.2414 12.1641C44.3958 12.6754 39.7634 14.4582 35.7957 17.338L35.7752 17.3528L35.7563 17.3697C34.074 18.8723 32.926 20.8973 32.4881 23.1302C32.0503 25.3631 32.3465 27.6812 33.3316 29.7257L33.5452 30.1691L33.9919 29.9626C39.2736 27.5208 43.9237 23.862 47.5777 19.2776L49.2311 20.3275C44.8559 27.5221 37.6203 33.4868 30.0228 38.0572C27.1739 34.4282 25.7144 29.8584 25.929 25.2018Z" stroke="#129E47"/>
</g>
<defs>
<clipPath id="clip0_611_10661">
<rect width="97" height="80" fill="white"/>
</clipPath>
</defs>
</svg>
