<svg width="97" height="80" viewBox="0 0 97 80" fill="none" xmlns="http://www.w3.org/2000/svg">
<path d="M70.248 76V60.093C70.248 56.1281 65.9368 51.3674 65.9368 51.3674M47.1702 55.5482C50.7546 53.6766 53.0031 51.7608 52.7495 47.9734L61.8792 49.2359C63.1132 49.525 65.9368 51.3674 65.9368 51.3674M60.6112 61.3555C64.2108 66.9504 63.6648 70.1757 60.6112 76M65.9368 51.3674C72.2769 18.6844 49.199 3.53489 34.4901 19.9468M36.2653 30.299C41.3022 32.4597 45.9022 31.0565 49.4527 25.7542C52.7495 28.5316 56.0463 29.5415 58.8359 28.5316C59.8503 36.3588 57.5679 42.608 52.7495 46.206C49.7063 48.4784 46.4124 48.7672 42.3518 46.206C37.2797 42.1661 35.6875 37.6591 36.2653 30.299Z" stroke="#129E47"/>
<path d="M24.3459 76V60.093C24.3459 56.1281 26.4132 52.8064 29.1644 50.8625M47.4238 55.5482C43.8394 53.6766 41.5909 51.7608 41.8445 47.9734L32.7148 49.2359C31.4808 49.5249 30.2676 50.0829 29.1644 50.8625M33.9828 61.3555C30.3832 66.9504 30.9292 70.1757 33.9828 76M29.1644 50.8625C27.9516 42.6235 27.9788 37.9659 30.1788 29.5415" stroke="#129E47"/>
<path fill-rule="evenodd" clip-rule="evenodd" d="M47.9495 7.57289L47.9751 7.07544C57.9362 7.58822 65.1761 12.7166 68.5391 18.674C74.0282 26.8241 74.3307 35.9777 74.3355 48.1591C76.5173 49.202 78.0563 50.6575 79.123 52.4478C80.2317 54.3086 80.8158 56.5066 81.11 58.9281C81.4041 61.3489 81.4116 64.0225 81.3477 66.8467C81.3268 67.7702 81.2983 68.7087 81.2694 69.6609L81.2693 69.6645C81.2094 71.6362 81.1478 73.6672 81.1478 75.7476L80.1478 75.7476C80.1478 73.6525 80.2102 71.5943 80.2703 69.6142V69.6139L80.2703 69.6128C80.2991 68.6638 80.3274 67.7327 80.348 66.8241C80.4117 64.0067 80.4022 61.3937 80.1173 59.0487C79.8325 56.7045 79.2755 54.6574 78.2639 52.9597C77.2579 51.2711 75.7877 49.9036 73.6307 48.9345L73.3356 48.8019V48.4784C73.3356 36.0836 73.0503 27.1506 67.6989 19.2165L67.6876 19.1998L67.6777 19.1822C64.4993 13.5375 57.584 8.57962 47.9495 8.07546C38.315 8.57962 31.3996 13.5375 28.2213 19.1822L28.2114 19.1998L28.2001 19.2165C22.8487 27.1506 22.5634 36.0836 22.5634 48.4784V48.8019L22.2683 48.9345C20.1112 49.9036 18.6411 51.2711 17.635 52.9597C16.6235 54.6574 16.0665 56.7045 15.7817 59.0487C15.4967 61.3937 15.4872 64.0067 15.551 66.8241C15.5716 67.733 15.5998 68.6645 15.6286 69.6139C15.6887 71.5941 15.7512 73.6524 15.7512 75.7476L14.7512 75.7476C14.7512 73.6672 14.6895 71.6362 14.6297 69.6645L14.6297 69.6644C14.6007 68.711 14.5722 67.7713 14.5513 66.8467C14.4873 64.0225 14.4948 61.3489 14.789 58.9281C15.0832 56.5066 15.6672 54.3086 16.7759 52.4478C17.8427 50.6575 19.3816 49.202 21.5634 48.1591C21.5682 35.9777 21.8707 26.8241 27.3598 18.674C30.7228 12.7166 37.9628 7.58822 47.9239 7.07544L47.9495 7.57289Z" fill="black"/>
<path d="M75.7289 5.59684C75.7289 5.31726 75.5007 5.08688 75.2145 5.08688C74.9283 5.08688 74.7001 5.31726 74.7001 5.59684C74.7001 5.87642 74.9283 6.10681 75.2145 6.10681C75.5007 6.10681 75.7289 5.87642 75.7289 5.59684Z" stroke="black"/>
<path d="M80.2938 5.59701C80.2938 4.75964 79.6114 4.07708 78.765 4.07708C77.9186 4.07708 77.2362 4.75964 77.2362 5.59701C77.2362 6.43438 77.9186 7.11694 78.765 7.11694C79.6114 7.11694 80.2938 6.43438 80.2938 5.59701Z" stroke="black"/>
<path fill-rule="evenodd" clip-rule="evenodd" d="M78.7575 0V1.80745C79.5028 1.86417 80.2128 2.04667 80.866 2.33367L81.7812 0.815011L82.6377 1.33117L81.7488 2.80632C82.1422 3.05797 82.5064 3.35092 82.8352 3.67901L84.0122 2.50723L84.7177 3.21588L83.4882 4.43998C83.7285 4.76832 83.9383 5.12014 84.1135 5.49134L86.3246 4.54787L86.7171 5.46764L84.4685 6.4271C84.5903 6.84447 84.6709 7.27934 84.7054 7.72703H86.88V8.72703H84.7054C84.6709 9.17471 84.5904 9.60958 84.4685 10.027L86.7171 10.9864L86.3246 11.9062L84.1135 10.9627C83.865 11.4892 83.5469 11.9767 83.1711 12.4135L84.7178 13.9535L84.0123 14.6622L82.4624 13.1191C82.132 13.4008 81.7728 13.6499 81.3897 13.8615L81.965 15.5799L81.0168 15.8974L80.4744 14.2774C79.9323 14.4743 79.3563 14.6011 78.7575 14.6467V16.4541H77.7575V14.6466C77.2944 14.6113 76.845 14.5275 76.4144 14.4002L75.4523 15.9967L74.5958 15.4806L75.4661 14.0364C74.9431 13.7869 74.4591 13.4694 74.0256 13.0954L72.4614 14.3413L71.8384 13.5591L73.317 12.3814C72.9514 11.9508 72.6415 11.4718 72.3985 10.9554L70.8978 11.5531L70.5278 10.6241L72.0449 10.0199C71.8795 9.45078 71.7909 8.84922 71.7909 8.22705C71.7909 8.15496 71.7921 8.08315 71.7944 8.01163H69.9943V7.01163H71.9059C71.9993 6.52529 72.1475 6.05836 72.3441 5.61751L70.4363 4.35125L70.9894 3.51808L72.8235 4.73545C73.3253 3.96281 73.9888 3.30401 74.7664 2.80653L73.8773 1.33117L74.7338 0.815011L75.6491 2.33383C76.3023 2.04679 77.0122 1.86425 77.7575 1.80749V0H78.7575ZM78.2578 2.78851C81.2812 2.78851 83.7246 5.22756 83.7246 8.22705C83.7246 11.2265 81.2812 13.6656 78.2578 13.6656C75.2343 13.6656 72.7909 11.2265 72.7909 8.22705C72.7909 5.22756 75.2343 2.78851 78.2578 2.78851Z" fill="black"/>
<path d="M76.236 10.1418C76.236 9.86219 76.0077 9.6318 75.7216 9.6318C75.4354 9.6318 75.2072 9.86219 75.2072 10.1418C75.2072 10.4213 75.4354 10.6517 75.7216 10.6517C76.0077 10.6517 76.236 10.4213 76.236 10.1418Z" stroke="black"/>
<path d="M81.308 8.62687C81.308 8.34729 81.0798 8.11691 80.7936 8.11691C80.5074 8.11691 80.2792 8.34729 80.2792 8.62687C80.2792 8.90645 80.5074 9.13684 80.7936 9.13684C81.0798 9.13684 81.308 8.90645 81.308 8.62687Z" stroke="black"/>
<mask id="path-9-inside-1_611_10658" fill="white">
<ellipse cx="0.760807" cy="0.757475" rx="0.760807" ry="0.757475" transform="matrix(1 0 0 -1 78.8704 35.6013)"/>
</mask>
<path d="M79.392 34.8438C79.392 34.9819 79.5032 35.0864 79.6312 35.0864V33.0864C80.5995 33.0864 81.392 33.8691 81.392 34.8438H79.392ZM79.6312 35.0864C79.7591 35.0864 79.8704 34.9819 79.8704 34.8438H77.8704C77.8704 33.8691 78.6628 33.0864 79.6312 33.0864V35.0864ZM79.8704 34.8438C79.8704 34.7058 79.7591 34.6013 79.6312 34.6013V36.6013C78.6628 36.6013 77.8704 35.8186 77.8704 34.8438H79.8704ZM79.6312 34.6013C79.5032 34.6013 79.392 34.7058 79.392 34.8438H81.392C81.392 35.8186 80.5995 36.6013 79.6312 36.6013V34.6013Z" fill="black" mask="url(#path-9-inside-1_611_10658)"/>
<mask id="path-11-inside-2_611_10658" fill="white">
<ellipse cx="0.760807" cy="0.757475" rx="0.760807" ry="0.757475" transform="matrix(1 0 0 -1 81.4062 35.6013)"/>
</mask>
<path d="M81.9279 34.8438C81.9279 34.9819 82.0391 35.0864 82.1671 35.0864V33.0864C83.1354 33.0864 83.9279 33.8691 83.9279 34.8438H81.9279ZM82.1671 35.0864C82.295 35.0864 82.4062 34.9819 82.4062 34.8438H80.4062C80.4062 33.8691 81.1987 33.0864 82.1671 33.0864V35.0864ZM82.4062 34.8438C82.4062 34.7058 82.295 34.6013 82.1671 34.6013V36.6013C81.1987 36.6013 80.4062 35.8186 80.4062 34.8438H82.4062ZM82.1671 34.6013C82.0391 34.6013 81.9279 34.7058 81.9279 34.8438H83.9279C83.9279 35.8186 83.1354 36.6013 82.1671 36.6013V34.6013Z" fill="black" mask="url(#path-11-inside-2_611_10658)"/>
<path fill-rule="evenodd" clip-rule="evenodd" d="M82.4134 30.804V32.0934C82.8347 32.1391 83.2388 32.2418 83.6177 32.3937L84.2748 31.3034L85.1313 31.8195L84.5005 32.8662C84.691 32.9969 84.871 33.1416 85.0391 33.2989L85.8721 32.4696L86.5776 33.1782L85.6918 34.0601C85.7983 34.2161 85.8953 34.379 85.9819 34.5481L87.5502 33.8789L87.9426 34.7987L86.3368 35.4839C86.3891 35.6879 86.4275 35.8974 86.451 36.1113H87.9999V37.1113H86.451C86.4275 37.3252 86.3891 37.5347 86.3368 37.7386L87.9426 38.4238L87.5502 39.3436L85.982 38.6744C85.8399 38.9516 85.6701 39.2123 85.4762 39.4529L86.5774 40.5493L85.8719 41.258L84.7675 40.1585C84.6052 40.2881 84.4338 40.4069 84.2545 40.5138L84.67 41.7549L83.7217 42.0724L83.3393 40.93C83.0429 41.027 82.7331 41.0945 82.4134 41.1292V42.4186H81.4134V41.1292C81.1902 41.105 80.9719 41.0647 80.7595 41.0097L80.0592 42.1717L79.2028 41.6555L79.8109 40.6464C79.537 40.5046 79.2793 40.336 79.0414 40.144L77.9137 41.0423L77.2907 40.2601L78.3326 39.4302C78.1451 39.1945 77.9807 38.9399 77.8426 38.6697L76.7728 39.0958L76.4028 38.1667L77.489 37.7341C77.3973 37.375 77.3486 36.9988 77.3486 36.6113L77.3486 36.6063H76.0806V35.6063H77.4606C77.5152 35.3653 77.5891 35.1316 77.6805 34.9068L76.3113 33.9979L76.8643 33.1648L78.1596 34.0246C78.4749 33.5719 78.8707 33.1789 79.3264 32.8663L78.6955 31.8195L79.552 31.3034L80.2092 32.3938C80.5881 32.2419 80.9921 32.1391 81.4134 32.0934V30.804H82.4134ZM81.9135 33.0664C83.8864 33.0664 85.4783 34.6576 85.4783 36.6113C85.4783 38.5649 83.8864 40.1561 81.9135 40.1561C79.9405 40.1561 78.3486 38.5649 78.3486 36.6113C78.3486 34.6576 79.9405 33.0664 81.9135 33.0664Z" fill="black"/>
<mask id="path-14-inside-3_611_10658" fill="white">
<ellipse cx="0.760807" cy="0.757475" rx="0.760807" ry="0.757475" transform="matrix(1 0 0 -1 79.3774 38.6312)"/>
</mask>
<path d="M79.8991 37.8738C79.8991 38.0118 80.0103 38.1163 80.1382 38.1163V36.1163C81.1066 36.1163 81.8991 36.899 81.8991 37.8738H79.8991ZM80.1382 38.1163C80.2662 38.1163 80.3774 38.0118 80.3774 37.8738H78.3774C78.3774 36.899 79.1699 36.1163 80.1382 36.1163V38.1163ZM80.3774 37.8738C80.3774 37.7357 80.2662 37.6312 80.1382 37.6312V39.6312C79.1699 39.6312 78.3774 38.8485 78.3774 37.8738H80.3774ZM80.1382 37.6312C80.0103 37.6312 79.8991 37.7357 79.8991 37.8738H81.8991C81.8991 38.8485 81.1066 39.6312 80.1382 39.6312V37.6312Z" fill="black" mask="url(#path-14-inside-3_611_10658)"/>
<mask id="path-16-inside-4_611_10658" fill="white">
<ellipse cx="0.760807" cy="0.757475" rx="0.760807" ry="0.757475" transform="matrix(1 0 0 -1 82.9277 37.6212)"/>
</mask>
<path d="M83.4493 36.8637C83.4493 37.0018 83.5606 37.1063 83.6885 37.1063V35.1063C84.6569 35.1063 85.4493 35.889 85.4493 36.8637H83.4493ZM83.6885 37.1063C83.8165 37.1063 83.9277 37.0018 83.9277 36.8637H81.9277C81.9277 35.889 82.7202 35.1063 83.6885 35.1063V37.1063ZM83.9277 36.8637C83.9277 36.7257 83.8165 36.6212 83.6885 36.6212V38.6212C82.7202 38.6212 81.9277 37.8385 81.9277 36.8637H83.9277ZM83.6885 36.6212C83.5606 36.6212 83.4493 36.7257 83.4493 36.8637H85.4493C85.4493 37.8385 84.6569 38.6212 83.6885 38.6212V36.6212Z" fill="black" mask="url(#path-16-inside-4_611_10658)"/>
<path d="M6.20997 33.3289C6.20997 33.0493 5.98173 32.8189 5.69556 32.8189C5.40939 32.8189 5.18115 33.0493 5.18115 33.3289C5.18115 33.6085 5.40939 33.8389 5.69556 33.8389C5.98173 33.8389 6.20997 33.6085 6.20997 33.3289Z" stroke="black"/>
<path d="M11.7891 38.8838C11.7891 37.7675 10.8796 36.8589 9.75307 36.8589C8.62653 36.8589 7.71704 37.7675 7.71704 38.8838C7.71704 40 8.62653 40.9087 9.75307 40.9087C10.8796 40.9087 11.7891 40 11.7891 38.8838Z" stroke="black"/>
<path fill-rule="evenodd" clip-rule="evenodd" d="M9.49225 27.269V29.2328C10.3349 29.2916 11.1367 29.4982 11.8715 29.8267L12.8647 28.1787L13.7212 28.6949L12.7542 30.2994C13.2092 30.5864 13.6288 30.924 14.0051 31.3042L15.2861 30.0288L15.9916 30.7375L14.6581 32.0652C14.9392 32.4444 15.1828 32.8528 15.3836 33.2851L17.7886 32.2588L18.1811 33.1786L15.7386 34.2208C15.8822 34.7016 15.9755 35.2041 16.0121 35.7221H18.3756V36.7221H16.0121C15.9754 37.24 15.8822 37.7425 15.7385 38.2233L18.1811 39.2655L17.7886 40.1853L15.3835 39.159C15.1145 39.7382 14.7685 40.2747 14.3584 40.7554L16.0023 42.4962L15.2753 43.1827L13.6567 41.4687C13.2472 41.8298 12.7953 42.1441 12.3092 42.4032L12.9802 44.2235L12.0419 44.5694L11.3934 42.8102C10.7935 43.027 10.1556 43.1649 9.49232 43.2112V45.175H8.49232V43.2112C7.95715 43.1738 7.43849 43.0769 6.94298 42.9269L5.90183 44.6546L5.04534 44.1384L5.9947 42.5631C5.3965 42.2823 4.84446 41.92 4.353 41.4907L2.65733 42.8413L2.03431 42.0591L3.64441 40.7767C3.22454 40.2884 2.87094 39.742 2.5975 39.1513L0.966935 39.8007L0.596947 38.8716L2.24383 38.2157C2.05578 37.5838 1.95483 36.9147 1.95483 36.222C1.95483 36.1287 1.95666 36.0359 1.96029 35.9436H0V34.9436H2.07171C2.17545 34.3833 2.34615 33.8464 2.57522 33.3413L0.505361 31.9675L1.05838 31.1343L3.05465 32.4593C3.61147 31.5901 4.35555 30.8514 5.23029 30.2994L4.26333 28.6949L5.11982 28.1787L6.11297 29.8267C6.84783 29.4983 7.64958 29.2917 8.49225 29.2328V27.269H9.49225ZM8.9923 30.2154C12.3308 30.2154 15.0298 32.9088 15.0298 36.222C15.0298 39.5352 12.3308 42.2286 8.9923 42.2286C5.65376 42.2286 2.95483 39.5352 2.95483 36.222C2.95483 32.9088 5.65376 30.2154 8.9923 30.2154Z" fill="black"/>
<path d="M6.71705 35.8539C6.71705 35.5743 6.48881 35.344 6.20264 35.344C5.91647 35.344 5.68823 35.5743 5.68823 35.8539C5.68823 36.1335 5.91647 36.3639 6.20264 36.3639C6.48881 36.3639 6.71705 36.1335 6.71705 35.8539Z" stroke="black"/>
<path d="M10.7748 34.0864C10.7748 33.3885 10.2059 32.819 9.49958 32.819C8.79323 32.819 8.22437 33.3885 8.22437 34.0864C8.22437 34.7844 8.79323 35.3539 9.49958 35.3539C10.2059 35.3539 10.7748 34.7844 10.7748 34.0864Z" stroke="black"/>
</svg>
