<svg width="97" height="80" viewBox="0 0 97 80" fill="none" xmlns="http://www.w3.org/2000/svg">
<g clip-path="url(#clip0_611_10656)">
<path d="M67.6148 -7C64.5023 -0.612746 62.871 3.00925 63.2374 10.6471C64.2604 18.8152 67.0115 24.4628 69.9195 31.8235M67.6148 68C67.6148 68 76.6615 52.1176 72.8677 40.0588C72.7741 39.7613 72.6801 39.4673 72.5857 39.1765M69.9195 31.8235C62.0386 37.0179 57.309 38.3932 48.3541 38.2941M69.9195 31.8235C70.8085 34.074 71.7123 36.4847 72.5857 39.1765M72.5857 39.1765C62.2795 42.2853 56.9439 46.0753 48.3541 57.1176V68M86 14.7647H70.8249M70.8249 14.7647L77.537 8.58824M70.8249 14.7647L76.9533 20.9412" stroke="black"/>
<path d="M67.6148 -7C64.5023 -0.612746 62.871 3.00925 63.2374 10.6471C64.2604 18.8152 67.0115 24.4628 69.9195 31.8235M67.6148 68C67.6148 68 76.6615 52.1176 72.8677 40.0588C72.7741 39.7613 72.6801 39.4673 72.5857 39.1765M69.9195 31.8235C62.0386 37.0179 57.309 38.3932 48.3541 38.2941M69.9195 31.8235C70.8085 34.074 71.7123 36.4847 72.5857 39.1765M72.5857 39.1765C62.2795 42.2853 56.9439 46.0753 48.3541 57.1176V68M86 14.7647H70.8249M70.8249 14.7647L77.537 8.58824M70.8249 14.7647L76.9533 20.9412" stroke="black"/>
<path d="M29.3852 -7C32.4977 -0.612746 34.129 3.00925 33.7626 10.6471C32.7396 18.8152 29.9885 24.4628 27.0805 31.8235M29.3852 68C29.3852 68 20.3385 52.1176 24.1323 40.0588C24.2259 39.7613 24.3199 39.4673 24.4143 39.1765M27.0805 31.8235C34.9614 37.0179 39.691 38.3932 48.6459 38.2941M27.0805 31.8235C26.1915 34.074 25.2877 36.4847 24.4143 39.1765M24.4143 39.1765C34.7205 42.2853 40.0561 46.0753 48.6459 57.1176V68M11 14.7647H26.1751M26.1751 14.7647L19.463 8.58824M26.1751 14.7647L20.0467 20.9412" stroke="black"/>
<ellipse cx="48.9379" cy="28.5882" rx="0.583658" ry="0.588235" fill="black"/>
<path d="M48.5011 38.2941C57.4561 38.3932 62.1856 37.0179 70.0665 31.8235C70.9556 34.074 71.8593 36.4846 72.7328 39.1764C62.4265 42.2853 57.091 46.0753 48.5011 57.1176" stroke="#129E47"/>
<path d="M48.7087 38.2941C39.7538 38.3932 35.0242 37.0179 27.1433 31.8235C26.2543 34.074 25.3505 36.4846 24.4771 39.1764C34.7833 42.2853 40.1189 46.0753 48.7087 57.1176" stroke="#129E47"/>
</g>
<defs>
<clipPath id="clip0_611_10656">
<rect width="97" height="80" fill="white"/>
</clipPath>
</defs>
</svg>
