<svg width="97" height="80" viewBox="0 0 97 80" fill="none" xmlns="http://www.w3.org/2000/svg">
<path d="M51.8 15.8169H52.736L48.896 7.41689H48.02L44.18 15.8169H45.104L46.112 13.5729H50.792L51.8 15.8169ZM46.436 12.8529L48.452 8.34089L50.468 12.8529H46.436Z" fill="#129E47"/>
<path d="M23.304 28.9982V25.8782H27.648V25.1222H23.304V22.1342H28.176V21.3662H22.416V29.7662H28.356V28.9982H23.304Z" fill="#129E47"/>
<path d="M21.368 56.6683H24.788C27.476 56.6683 29.288 54.9403 29.288 52.4683C29.288 49.9963 27.476 48.2683 24.788 48.2683H21.368V56.6683ZM22.256 55.9003V49.0363H24.74C26.972 49.0363 28.412 50.4523 28.412 52.4683C28.412 54.4843 26.972 55.9003 24.74 55.9003H22.256Z" fill="#129E47"/>
<path d="M49.016 70.6896C50.252 70.6896 51.356 70.2696 52.1 69.4536L51.536 68.8896C50.852 69.5976 50.012 69.8976 49.052 69.8976C47.024 69.8976 45.5 68.4096 45.5 66.4176C45.5 64.4256 47.024 62.9376 49.052 62.9376C50.012 62.9376 50.852 63.2376 51.536 63.9336L52.1 63.3696C51.356 62.5536 50.252 62.1456 49.028 62.1456C46.496 62.1456 44.624 63.9576 44.624 66.4176C44.624 68.8776 46.496 70.6896 49.016 70.6896Z" fill="#129E47"/>
<path d="M74.396 25.4063C75.236 25.0955 75.764 24.4618 75.764 23.4933C75.764 22.0944 74.672 21.3531 72.908 21.3531H69.416V29.7227H73.136C75.164 29.7227 76.184 28.8977 76.184 27.4629C76.184 26.3509 75.572 25.6455 74.396 25.4063ZM70.292 22.0585H72.86C74.144 22.0585 74.876 22.5966 74.876 23.6009C74.876 24.6172 74.144 25.1433 72.86 25.1433H70.292V22.0585ZM73.136 29.0172H70.292V25.8248H73.136C74.552 25.8248 75.308 26.315 75.308 27.4031C75.308 28.5031 74.552 29.0172 73.136 29.0172Z" fill="#129E47"/>
<path d="M76.7646 27.0452V27.3641H77.5896V30.5325H77.9496V27.0452H76.7646Z" fill="#129E47"/>
<path d="M74.396 52.3086C75.236 51.9977 75.764 51.364 75.764 50.3955C75.764 48.9966 74.672 48.2553 72.908 48.2553H69.416V56.6249H73.136C75.164 56.6249 76.184 55.7999 76.184 54.3651C76.184 53.2531 75.572 52.5477 74.396 52.3086ZM70.292 48.9607H72.86C74.144 48.9607 74.876 49.4988 74.876 50.5031C74.876 51.5194 74.144 52.0455 72.86 52.0455H70.292V48.9607ZM73.136 55.9194H70.292V52.727H73.136C74.552 52.727 75.308 53.2173 75.308 54.3053C75.308 55.4053 74.552 55.9194 73.136 55.9194Z" fill="#129E47"/>
<path d="M76.7646 54.3858V54.7047H77.5896V57.8732H77.9496V54.3858H76.7646Z" fill="#129E47"/>
<path d="M79.2513 57.5543L80.4413 56.3886C80.9113 55.9302 81.0163 55.6313 81.0163 55.2975C81.0163 54.7147 80.5663 54.356 79.8563 54.356C79.3213 54.356 78.8863 54.5353 78.6163 54.8541L78.8713 55.0733C79.1013 54.8093 79.4163 54.6848 79.8263 54.6848C80.3613 54.6848 80.6463 54.9339 80.6463 55.3374C80.6463 55.5765 80.5713 55.8107 80.1763 56.1993L78.7213 57.6191V57.8732H81.1763V57.5543H79.2513Z" fill="#129E47"/>
<path d="M38.6399 34.4782C42.8399 24.4348 60.4799 24.7138 60.4799 40.6159M60.4799 40.6159L58.2399 38.663M60.4799 40.6159L62.7199 38.663" stroke="black"/>
<path d="M59.9202 44.5217C55.7202 54.5652 38.0802 54.2862 38.0802 38.384M38.0802 38.384L40.3202 40.3369M38.0802 38.384L35.8402 40.3369" stroke="black"/>
<path d="M25.2 14.3913C26.9321 14.3913 28.5723 14.7831 30.0364 15.4825C33.8007 17.2809 36.4 21.1133 36.4 25.5507C36.4 31.7139 31.3856 36.7101 25.2 36.7101C19.0144 36.7101 14 31.7139 14 25.5507C14 20.7235 17.0761 16.6121 21.3818 15.0566" stroke="black"/>
<path d="M72.7999 14.3913C74.5319 14.3913 76.1722 14.7831 77.6362 15.4825C81.4005 17.2809 83.9999 21.1133 83.9999 25.5507C83.9999 31.7139 78.9854 36.7101 72.7999 36.7101C66.6143 36.7101 61.5999 31.7139 61.5999 25.5507C61.5999 20.7235 64.676 16.6121 68.9817 15.0566" stroke="black"/>
<path d="M48.7199 1C50.452 1 52.0922 1.39176 53.5563 2.0912C57.3206 3.88959 59.9199 7.72205 59.9199 12.1594C59.9199 18.3226 54.9055 23.3188 48.7199 23.3188C42.5343 23.3188 37.5199 18.3226 37.5199 12.1594C37.5199 7.33219 40.596 3.22083 44.9017 1.66526" stroke="black"/>
<path d="M48.72 55.6812C50.4521 55.6812 52.0924 56.0729 53.5564 56.7723C57.3207 58.5707 59.92 62.4032 59.92 66.8406C59.92 73.0038 54.9056 78 48.72 78C42.5344 78 37.52 73.0038 37.52 66.8406C37.52 62.0133 40.5962 57.902 44.9018 56.3464" stroke="black"/>
<path d="M25.2 41.7319C26.9321 41.7319 28.5723 42.1236 30.0364 42.8231C33.8007 44.6215 36.4 48.4539 36.4 52.8913C36.4 59.0545 31.3856 64.0507 25.2 64.0507C19.0144 64.0507 14 59.0545 14 52.8913C14 48.0641 17.0761 43.9527 21.3818 42.3971" stroke="black"/>
<path d="M72.7999 41.7319C74.5319 41.7319 76.1722 42.1236 77.6362 42.8231C81.4005 44.6215 83.9999 48.4539 83.9999 52.8913C83.9999 59.0545 78.9854 64.0507 72.7999 64.0507C66.6143 64.0507 61.5999 59.0545 61.5999 52.8913C61.5999 48.0641 64.676 43.9527 68.9817 42.3971" stroke="black"/>
</svg>
