<svg width="97" height="80" viewBox="0 0 97 80" fill="none" xmlns="http://www.w3.org/2000/svg">
<path d="M45.0579 26.3303C40.9173 26.045 38.5734 24.2576 36.4695 20.145C38.1699 24.8644 37.3395 27.0993 34.3964 30.7484C29.9516 28.1698 29.0637 26.2103 29.0657 22.2068C27.6382 27.2213 26.0217 29.016 21.958 30.7484C19.5306 27.593 19.3747 25.7129 20.7734 22.2068C17.1815 23.8587 15.0796 24.3699 11.8888 24.0733M46.8348 25.1522C47.5912 23.0366 45.7765 18.1753 44.4656 17.7887C48.2957 18.8304 50.5065 18.5545 54.5348 16.9051C52.7614 13.9789 50.8319 11.8476 46.2425 11.8979C48.5113 10.4127 49.4054 9.27945 49.7963 6.30169C44.9473 6.84878 42.7497 7.8252 39.7271 10.7198C41.3713 8.59587 41.4292 7.21106 40.6156 4.53446C36.6271 5.26909 34.7621 6.40175 32.6195 10.7198C32.4618 7.33019 32.418 5.40861 34.3964 1H29.0657C27.3236 5.30929 27.8893 7.33834 28.4734 10.7198C25.5225 8.3428 24.2274 7.49865 19.5888 8.658C20.3367 10.8734 21.1334 11.8933 23.1426 13.3706C18.7477 12.1854 16.2837 11.5819 11.8888 13.3706C13.0176 15.2678 14.008 16.0945 17.2196 16.6105C13.4932 18.0661 12.0791 20.0908 11.0004 23.974C11.3066 24.0135 11.6021 24.0467 11.8888 24.0733M11.8888 24.0733C4.55755 39.5466 20.1811 58.1405 31.1387 65.2094C35.7854 67.7294 41.504 67.5657 45.6502 65.2094" stroke="black"/>
<path d="M85.9268 35.1665H87.9999C87.3218 30.9435 86.3656 29.0506 82.0768 27.803C84.7778 27.6022 86.0967 27.1273 87.9999 25.4467C84.8013 23.2658 82.1549 23.1883 76.7461 23.974C78.884 22.9641 79.7802 22.0483 80.8922 19.8505C77.0505 18.3508 75.1538 18.8651 72.0076 21.0286C73.3973 18.3763 74.2282 16.9001 77.0422 14.5488L72.5999 11.3088C69.682 13.6108 69.1421 15.642 69.0461 19.8505C67.7055 16.6252 66.5914 15.1248 62.8269 13.9597C62.1068 15.8389 62.3258 17.2568 62.8269 19.8505C60.5129 16.1611 58.6958 14.6604 53.6462 13.9597C54.2924 16.6005 54.8998 17.7977 56.3116 19.5559C52.9222 19.6335 51.0207 19.6473 47.7231 21.9122C48.6737 22.6153 49.2525 22.8862 50.3885 23.0904M55.7193 33.6938L57.4962 36.6392M50.3885 44.0026H53.6462M49.5001 53.1333L52.4616 51.9552M67.5654 55.1951L69.6384 58.1405M71.1192 47.8316H74.673M72.0076 39.8791L75.5615 38.7009M61.6423 36.6392C61.6423 36.6392 56.9039 53.1333 56.9039 56.3732C56.9039 59.6132 56.8951 59.1107 57.4962 59.9077C58.4581 59.773 58.9776 59.1427 59.8654 56.9623C59.8654 56.9623 65.4923 41.9409 66.3807 38.1118C67.2692 34.2828 63.4953 32.0796 61.6423 36.6392Z" stroke="black"/>
<path d="M23.6216 39.5294C23.7252 40.0916 23.6705 40.6035 23.5241 40.9707C23.3748 41.3454 23.1661 41.4998 22.9934 41.5312C22.8208 41.5627 22.5705 41.4919 22.2974 41.1943C22.0296 40.9025 21.796 40.4432 21.6924 39.881C21.5888 39.3189 21.6435 38.807 21.7898 38.4397C21.9391 38.0651 22.1479 37.9107 22.3205 37.8792C22.4932 37.8478 22.7434 37.9185 23.0166 38.2161C23.2844 38.5079 23.518 38.9673 23.6216 39.5294Z" stroke="black"/>
<path d="M37.7013 37.8583C37.766 38.4261 37.6762 38.9331 37.5049 39.2895C37.3302 39.6531 37.1113 39.793 36.9369 39.8126C36.7624 39.8323 36.5176 39.7446 36.2655 39.4291C36.0185 39.1199 35.817 38.6457 35.7523 38.0778C35.6876 37.51 35.7774 37.003 35.9486 36.6466C36.1233 36.2831 36.3422 36.1432 36.5167 36.1235C36.6912 36.1039 36.936 36.1915 37.188 36.507C37.4351 36.8163 37.6366 37.2904 37.7013 37.8583Z" stroke="black"/>
<path d="M31.1859 51.9962C31.2506 52.5641 31.1608 53.071 30.9896 53.4275C30.8149 53.791 30.5959 53.9309 30.4215 53.9506C30.247 53.9702 30.0022 53.8826 29.7502 53.5671C29.5031 53.2578 29.3016 52.7836 29.2369 52.2158C29.1722 51.6479 29.262 51.141 29.4332 50.7845C29.6079 50.421 29.8269 50.2811 30.0013 50.2615C30.1758 50.2418 30.4206 50.3294 30.6726 50.6449C30.9197 50.9542 31.1212 51.4284 31.1859 51.9962Z" stroke="black"/>
<path d="M43.281 28.6866C49.5002 19.8504 61.0553 21.4884 69.0463 26.0357C79.4116 26.3302 87.4077 32.5155 88 42.5299C87.1116 56.9622 68.7501 76.1072 53.6464 72.5728C43.281 69.6274 34.3965 44.2971 43.281 28.6866Z" stroke="black"/>
<path d="M46.3156 31.3528C51.495 23.9557 61.1181 25.327 67.773 29.1337C76.4053 29.3802 83.0645 34.5582 83.5577 42.9416C82.8178 55.0235 67.5264 71.0506 54.9479 68.0918C46.3156 65.6261 38.9165 44.421 46.3156 31.3528Z" stroke="black"/>
</svg>
