<svg width="97" height="80" viewBox="0 0 97 80" fill="none" xmlns="http://www.w3.org/2000/svg">
<path d="M20.2956 78.494C19.8442 78.0433 19.4253 77.6071 19.0329 77.1738M39.8668 42.9416C39.4364 42.7739 40.3007 43.2526 39.8668 43.0939M39.8668 43.0939C33.8692 37.9077 24.3992 39.1662 19.6643 49.8633C14.298 52.0657 12.0755 57.952 13.351 66.5383C15.1646 71.8675 16.5785 74.4634 19.0329 77.1738M39.8668 43.0939C38.2885 40.4247 39.8668 35.0761 44.6018 34.4469M45.5488 35.3907C41.4452 31.9299 41.1295 25.6374 44.2861 21.862M48.3898 25.6374C40.3505 19.0936 38.2071 14.3121 37.6572 4.24309M37.6572 4.24309C39.5087 0.0220702 44.6018 0.152993 46.8115 3.29922C46.1801 11.1648 51.5464 15.2549 51.5464 15.2549C72.7834 1.66114 91.6359 37.9077 60.7007 63.0775C43.6737 74.8439 31.3818 68.7091 25.8212 64.336M37.6572 4.24309C38.6042 6.13082 40.8138 6.44544 43.0235 6.13082M22.5052 61.1898C22.5052 61.1898 23.6502 62.6286 25.8212 64.336M25.8212 64.336C22.5395 67.1807 24.3992 69.4351 28.1872 74.7185C27.5905 78.6252 24.3992 79.4379 20.6113 78.8086M19.0329 77.1738C19.4488 75.7397 19.9312 74.974 21.8739 73.7747" stroke="black"/>
<path d="M58.6223 21.5473C58.6223 22.3121 57.9998 22.935 57.2283 22.935C56.4569 22.935 55.8344 22.3121 55.8344 21.5473C55.8344 20.7824 56.4569 20.1595 57.2283 20.1595C57.9998 20.1595 58.6223 20.7824 58.6223 21.5473Z" stroke="#129E47"/>
<path d="M67.4611 28.1544C67.4611 30.1356 65.8492 31.7445 63.8574 31.7445C61.8656 31.7445 60.2538 30.1356 60.2538 28.1544C60.2538 26.1732 61.8656 24.5643 63.8574 24.5643C65.8492 24.5643 67.4611 26.1732 67.4611 28.1544Z" stroke="#129E47"/>
<path d="M58.6224 33.8176C58.6224 34.7562 57.8586 35.5199 56.9128 35.5199C55.967 35.5199 55.2031 34.7562 55.2031 33.8176C55.2031 32.879 55.967 32.1152 56.9128 32.1152C57.8586 32.1152 58.6224 32.879 58.6224 33.8176Z" stroke="#129E47"/>
<path d="M61.1477 47.0317C61.1477 49.0129 59.5359 50.6218 57.5441 50.6218C55.5523 50.6218 53.9404 49.0129 53.9404 47.0317C53.9404 45.0505 55.5523 43.4417 57.5441 43.4417C59.5359 43.4417 61.1477 45.0505 61.1477 47.0317Z" stroke="#129E47"/>
<path d="M54.8346 52.695C54.8346 53.9812 53.788 55.0266 52.4936 55.0266C51.1991 55.0266 50.1526 53.9812 50.1526 52.695C50.1526 51.4089 51.1991 50.3634 52.4936 50.3634C53.788 50.3634 54.8346 51.4089 54.8346 52.695Z" stroke="#129E47"/>
<path d="M47.4427 39.7954H43.9704C44.4869 42.9381 45.2775 44.9487 43.0234 46.7171C39.6105 48.1687 37.6717 47.6607 34.1848 45.144C22.8211 43.4139 20.2955 57.0996 30.0812 62.7629C56.2813 73.7746 70.802 43.5709 70.802 39.7954H52.4934C52.2964 41.8106 51.2307 42.627 49.6524 42.627C48.3897 42.3124 47.4179 41.545 47.4427 39.7954Z" stroke="#129E47"/>
</svg>
