<svg width="35" height="35" viewBox="0 0 35 35" fill="none" xmlns="http://www.w3.org/2000/svg">
<path d="M34.16 17.2493C34.16 26.4997 26.6599 33.9987 17.4079 33.9987C8.15595 33.9987 0.655884 26.4997 0.655884 17.2493C0.655884 7.99901 8.15595 0.5 17.4079 0.5C26.6599 0.5 34.16 7.99901 34.16 17.2493Z" fill="#129E47" stroke="white"/>
<path d="M21.3683 13.0121C21.3683 15.3768 19.4696 17.2946 17.1536 17.2946C14.8375 17.2946 12.9388 15.3768 12.9388 13.0121C12.9388 10.6474 14.8375 8.72961 17.1536 8.72961C19.4673 8.72961 21.3683 10.6476 21.3683 13.0121ZM19.6097 13.0096C19.6097 11.6461 18.5183 10.5253 17.1536 10.5253C15.7917 10.5253 14.6974 11.6457 14.6974 13.0096C14.6974 14.3731 15.7888 15.4939 17.1536 15.4939C18.5154 15.4939 19.6097 14.3735 19.6097 13.0096Z" fill="white" stroke="white"/>
<path d="M18.9553 21.2001L18.0797 21.4021L18.713 22.0397L21.373 24.7178C21.3732 24.718 21.3734 24.7182 21.3736 24.7184C21.7218 25.0723 21.7216 25.6464 21.373 26C21.0281 26.3499 20.4739 26.3499 20.129 26L17.5299 23.3636L17.1738 23.0024L16.8178 23.3636L14.2187 26L14.2186 25.9999L14.2107 26.0083C14.0508 26.1781 13.8238 26.2656 13.5954 26.2656C13.3878 26.2656 13.1595 26.1772 12.9674 25.9951C12.6233 25.6409 12.6249 25.07 12.9722 24.7178L12.6161 24.3667L12.9722 24.7178L15.6136 22.0384L16.2413 21.4016L15.3702 21.2002C14.4618 20.9901 13.5817 20.6278 12.7856 20.1124L12.7857 20.1124L12.7805 20.1091C12.3595 19.8438 12.2344 19.2811 12.499 18.8589L12.499 18.8589L12.5017 18.8545C12.7646 18.4252 13.31 18.3071 13.7157 18.5687L13.718 18.5702C15.8103 19.9028 18.5164 19.9032 20.6067 18.5706C21.0204 18.3094 21.5589 18.4344 21.8251 18.8571C22.0885 19.2877 21.9562 19.8431 21.5413 20.1114C20.7296 20.629 19.8634 20.9907 18.9553 21.2001Z" fill="white" stroke="white"/>
</svg>
