<svg width="43" height="43" viewBox="0 0 43 43" fill="none" xmlns="http://www.w3.org/2000/svg">
<path d="M42.2227 21.5C42.2227 33.1042 32.9402 42.5 21.5034 42.5C10.0667 42.5 0.78418 33.1042 0.78418 21.5C0.78418 9.8958 10.0667 0.5 21.5034 0.5C32.9402 0.5 42.2227 9.8958 42.2227 21.5Z" fill="white" stroke="#129E47"/>
<path d="M26.8772 16.2192C26.8772 19.2324 24.4547 21.6802 21.494 21.6802C18.5333 21.6802 16.1108 19.2324 16.1108 16.2192C16.1108 13.206 18.5333 10.7582 21.494 10.7582C24.4518 10.7582 26.8772 13.2062 26.8772 16.2192ZM24.435 16.216C24.435 14.5823 23.1263 13.2428 21.494 13.2428C19.8653 13.2428 18.5531 14.5819 18.5531 16.216C18.5531 17.8498 19.8618 19.1893 21.494 19.1893C23.1228 19.1893 24.435 17.8502 24.435 16.216Z" fill="#129E47" stroke="#129E47"/>
<path d="M23.7699 26.5451L22.8933 26.7471L23.5276 27.3849L26.8472 30.7233C26.8474 30.7235 26.8477 30.7237 26.8479 30.724C27.3298 31.213 27.3296 32.0053 26.8472 32.4941C26.3682 32.9794 25.597 32.9794 25.118 32.4941L21.8748 29.208L21.5189 28.8474L21.163 29.208L17.9198 32.4941L17.9197 32.494L17.9118 32.5024C17.6865 32.7414 17.3694 32.862 17.0537 32.862C16.7588 32.862 16.4434 32.7368 16.1827 32.4892C15.7049 31.9998 15.7065 31.2106 16.1875 30.7233L19.4836 27.3836L20.1122 26.7466L19.2402 26.5452C18.0934 26.2803 16.9816 25.8232 15.9756 25.1727L15.9757 25.1726L15.9705 25.1694C15.3865 24.8018 15.2149 24.0243 15.5804 23.4417L15.5804 23.4417L15.5831 23.4373C15.9472 22.8435 16.7058 22.6777 17.2711 23.0418L17.2735 23.0433C19.8436 24.6785 23.1683 24.6788 25.7358 23.0437C26.3123 22.6801 27.0609 22.8564 27.4283 23.4399C27.7926 24.034 27.6101 24.801 27.0359 25.1716C26.0112 25.8245 24.917 26.2808 23.7699 26.5451Z" fill="#129E47" stroke="#129E47"/>
</svg>
