<svg width="168" height="162" viewBox="0 0 168 162" fill="none" xmlns="http://www.w3.org/2000/svg">
<path d="M1.63428 118.932H47.9504M59.0663 118.932H81.9156" stroke="black"/>
<path d="M21.7041 46.8611C19.0732 51.1945 19.8513 53.7849 22.6304 56.9321C25.4095 60.0793 24.9819 63.8772 22.6304 68.8914" stroke="black"/>
<path d="M31.3476 32.3839C28.7168 36.7173 29.4949 39.3077 32.274 42.4549C35.053 45.6021 34.6254 49.4 32.274 54.4142" stroke="black"/>
<path d="M104.456 44.9727L107.544 41.8255" stroke="black"/>
<path d="M113.102 53.7848L116.189 50.6376" stroke="black"/>
<path d="M121.748 62.5969L124.835 59.4497" stroke="black"/>
<path d="M58.4488 52.5263C55.8849 48.2509 55.3611 44.6582 59.9927 40.2523C64.6243 35.8464 94.5754 5.3185 94.5754 5.3185C98.7702 1.65656 100.751 1.85647 104.456 5.3185" stroke="black"/>
<path d="M82.2247 116.099C86.2387 115.155 87.8705 115.964 89.6352 117.988C92.1054 120.82 92.5994 127.115 89.6352 130.891C86.671 134.668 76.9755 137.5 72.9614 140.962" stroke="black"/>
<path d="M82.5332 106.972H0.708008C1.00048 114.84 1.32556 119.876 3.79575 128.688C6.26594 137.5 12.4414 145.053 17.9994 149.459C23.5573 153.866 25.3463 156.016 27.8801 160.789H55.6698C57.9975 155.182 58.9105 154.295 65.3947 148.944C71.879 143.594 77.4369 135.411 79.5984 128.173C81.7598 120.934 82.7571 115.874 82.5332 106.972Z" stroke="#129E47"/>
<path d="M16.7646 160.789H66.4773" stroke="black"/>
<path d="M15.5288 106.972C15.5288 81.1655 27.8798 63.856 51.3466 59.4499M36.8342 106.972C33.7465 97.5309 32.8202 78.9625 46.0975 65.4296M46.0975 65.4296L104.456 5.31827L111.866 13.1862L121.438 3.74467C125.646 -0.545574 127.788 -0.166844 131.319 5.31827L152.007 34.2724C158.394 43.2647 158.158 48.8617 153.551 59.4499L166.828 73.927L125.761 115.785C125.761 115.785 89.3259 82.4244 82.224 76.4448C75.1222 70.4651 71.8761 69.6568 60.6098 67.9473L46.0975 65.4296Z" stroke="black"/>
<path d="M143.98 48.4348L116.808 18.5365L120.822 14.4451C124.303 10.5481 126.189 11.2477 129.467 16.0187L143.98 35.2166C148.038 40.8372 150.773 45.2875 149.229 48.4348C147.685 51.5821 146.141 50.6377 143.98 48.4348Z" stroke="black"/>
<rect x="0.700333" width="9.59987" height="51.9993" rx="4.79993" transform="matrix(0.700333 -0.713816 0.700333 0.713816 94.1684 35.1541)" stroke="black"/>
</svg>
