<svg width="93" height="127" viewBox="0 0 93 127" fill="none" xmlns="http://www.w3.org/2000/svg">
<path d="M1.60986 83.8589H47.926M59.0419 83.8589H81.8912" stroke="black"/>
<path d="M82.1998 81.0267C86.2138 80.0824 87.8456 80.8915 89.6103 82.915C92.0805 85.7474 92.5745 92.0418 89.6103 95.8184C86.6461 99.595 76.9506 102.427 72.9365 105.889" stroke="black"/>
<path d="M82.5088 71.8995H0.683594C0.976066 79.7675 1.30114 84.803 3.77134 93.6151C6.24153 102.427 12.417 109.981 17.975 114.387C23.5329 118.793 25.3219 120.943 27.8557 125.716H55.6454C57.9731 120.109 58.8861 119.222 65.3703 113.871C71.8546 108.521 77.4125 100.339 79.574 93.1C81.7354 85.8615 82.7327 80.8014 82.5088 71.8995Z" stroke="#129E47"/>
<path d="M16.7397 125.717H66.4524" stroke="black"/>
<path d="M53.9321 11.6519L70.4433 33.1089" stroke="black"/>
<path d="M20.9097 26.798L22.9736 29.7431" stroke="black"/>
<path d="M48.5659 4.49951L51.0426 7.44459" stroke="black"/>
<path d="M31.642 50.3587H49.3915L74.9837 29.3224L53.1065 1.13373L16.3691 30.5845L31.642 50.3587Z" stroke="black"/>
<path d="M26.2759 33.9504L38.6592 50.3587" stroke="black"/>
<path d="M40.6361 56.2488C40.6361 57.1435 39.927 57.8525 39.0722 57.8525C38.2174 57.8525 37.5083 57.1435 37.5083 56.2488C37.5083 55.3541 38.2174 54.6452 39.0722 54.6452C39.927 54.6452 40.6361 55.3541 40.6361 56.2488Z" stroke="black"/>
<path d="M48.8915 68.0292C48.8915 68.9239 48.1823 69.6328 47.3276 69.6328C46.4728 69.6328 45.7637 68.9239 45.7637 68.0292C45.7637 67.1345 46.4728 66.4255 47.3276 66.4255C48.1823 66.4255 48.8915 67.1345 48.8915 68.0292Z" stroke="black"/>
<path d="M39.8105 64.2426C39.8105 64.9049 39.2862 65.4255 38.6594 65.4255C38.0326 65.4255 37.5083 64.9049 37.5083 64.2426C37.5083 63.5803 38.0326 63.0597 38.6594 63.0597C39.2862 63.0597 39.8105 63.5803 39.8105 64.2426Z" stroke="black"/>
<path d="M43.1128 60.8768C43.1128 61.5391 42.5885 62.0597 41.9617 62.0597C41.3349 62.0597 40.8105 61.5391 40.8105 60.8768C40.8105 60.2145 41.3349 59.6939 41.9617 59.6939C42.5885 59.6939 43.1128 60.2145 43.1128 60.8768Z" stroke="black"/>
<path d="M47.2402 53.3038C47.2402 53.9661 46.7159 54.4867 46.0891 54.4867C45.4623 54.4867 44.938 53.9661 44.938 53.3038C44.938 52.6414 45.4623 52.1208 46.0891 52.1208C46.7159 52.1208 47.2402 52.6414 47.2402 53.3038Z" stroke="black"/>
<path d="M38.9848 76.0229C38.9848 76.6853 38.4605 77.2058 37.8337 77.2058C37.2069 77.2058 36.6826 76.6853 36.6826 76.0229C36.6826 75.3606 37.2069 74.84 37.8337 74.84C38.4605 74.84 38.9848 75.3606 38.9848 76.0229Z" stroke="black"/>
<path d="M42.2871 72.6572C42.2871 73.3195 41.7628 73.8401 41.136 73.8401C40.5092 73.8401 39.9849 73.3195 39.9849 72.6572C39.9849 71.9948 40.5092 71.4742 41.136 71.4742C41.7628 71.4742 42.2871 71.9948 42.2871 72.6572Z" stroke="black"/>
<path d="M35.6824 60.0353C35.6824 61.1624 34.7884 62.0597 33.7057 62.0597C32.6229 62.0597 31.729 61.1624 31.729 60.0353C31.729 58.9083 32.6229 58.011 33.7057 58.011C34.7884 58.011 35.6824 58.9083 35.6824 60.0353Z" stroke="black"/>
<path d="M47.2405 76.8644C47.2405 77.9914 46.3465 78.8887 45.2638 78.8887C44.181 78.8887 43.2871 77.9914 43.2871 76.8644C43.2871 75.7373 44.181 74.84 45.2638 74.84C46.3465 74.84 47.2405 75.7373 47.2405 76.8644Z" stroke="black"/>
</svg>
