<svg width="99" height="98" viewBox="0 0 99 98" fill="none" xmlns="http://www.w3.org/2000/svg">
<path d="M8.28223 54.826H54.5984M65.7142 54.826H88.5635" stroke="black"/>
<path d="M23.4121 96.6836H73.1248" stroke="black"/>
<path d="M89.1807 42.8666H7.35547C7.64794 50.7346 7.97302 55.7701 10.4432 64.5822C12.9134 73.3943 19.0889 80.9476 24.6468 85.3536C30.2048 89.7597 31.9937 91.9103 34.5276 96.6835H62.3173C64.645 91.0758 65.5579 90.1888 72.0422 84.8385C78.5265 79.4883 84.0844 71.3056 86.2458 64.0671C88.4072 56.8285 89.4045 51.7684 89.1807 42.8666Z" stroke="#129E47"/>
<path d="M88.8721 51.9938C92.8862 51.0495 94.518 51.8586 96.2827 53.8821C98.7529 56.7145 99.2469 63.0089 96.2827 66.7855C93.3185 70.5621 83.623 73.3946 79.6089 76.8565" stroke="black"/>
<path d="M66.0916 42.8666C72.9026 31.5799 80.0258 19.941 82.2386 16.909C86.8495 10.5909 95.1681 17.1488 91.4156 23.3023C89.8825 25.8163 83.6533 34.03 76.8209 42.8666" stroke="black"/>
<path d="M11.987 23.6689C8.59111 23.3542 4.88581 21.1512 3.03251 19.5776C0.560846 17.479 1.11863 14.8568 3.03251 12.9685C7.66434 8.56243 21.868 6.3594 34.8363 6.3594M34.8363 6.3594L29.2783 0.694458M34.8363 6.3594L29.2783 12.0243" stroke="black"/>
<path d="M48.4227 6.98884C53.363 6.98884 63.2439 9.19188 66.3317 12.6538C68.4956 15.0799 68.2456 17.3746 66.3317 19.2629C56.1421 25.872 43.1734 25.872 30.2051 25.872M30.2051 25.872L35.763 31.5369M30.2051 25.872L35.763 20.207" stroke="black"/>
</svg>
