<svg width="22" height="22" viewBox="0 0 22 22" fill="none" xmlns="http://www.w3.org/2000/svg">
<path d="M16.1453 14.223C17.4767 12.4062 18.073 10.1537 17.8149 7.9161C17.5569 5.6785 16.4635 3.62086 14.7534 2.15482C13.0434 0.688783 10.8429 -0.077529 8.59216 0.00919659C6.34141 0.0959222 4.20639 1.02929 2.61426 2.62256C1.02212 4.21584 0.0902833 6.35152 0.00516828 8.60234C-0.0799467 10.8532 0.687939 13.0531 2.1552 14.7621C3.62246 16.471 5.68089 17.563 7.91866 17.8194C10.1564 18.0759 12.4085 17.478 14.2244 16.1453H14.223C14.2643 16.2003 14.3083 16.2525 14.3578 16.3034L19.6515 21.5971C19.9093 21.8551 20.2591 22.0002 20.6238 22.0003C20.9886 22.0004 21.3384 21.8557 21.5965 21.5978C21.8545 21.34 21.9995 20.9902 21.9996 20.6255C21.9997 20.2608 21.855 19.9109 21.5971 19.6529L16.3034 14.3591C16.2542 14.3094 16.2014 14.2634 16.1453 14.2216V14.223ZM16.5 8.93752C16.5 9.93064 16.3044 10.914 15.9244 11.8316C15.5443 12.7491 14.9873 13.5828 14.285 14.285C13.5828 14.9873 12.7491 15.5443 11.8316 15.9244C10.914 16.3044 9.93064 16.5 8.93751 16.5C7.94439 16.5 6.961 16.3044 6.04347 15.9244C5.12595 15.5443 4.29226 14.9873 3.59002 14.285C2.88778 13.5828 2.33073 12.7491 1.95067 11.8316C1.57062 10.914 1.37501 9.93064 1.37501 8.93752C1.37501 6.93182 2.17178 5.00827 3.59002 3.59002C5.00826 2.17178 6.93181 1.37502 8.93751 1.37502C10.9432 1.37502 12.8668 2.17178 14.285 3.59002C15.7033 5.00827 16.5 6.93182 16.5 8.93752Z" fill="#129E47"/>
</svg>
