<svg width="26" height="25" viewBox="0 0 26 25" fill="none" xmlns="http://www.w3.org/2000/svg">
<path fill-rule="evenodd" clip-rule="evenodd" d="M2.94618 0.797178C3.21959 0.524179 3.5479 0.312403 3.90935 0.175883C4.27079 0.0393643 4.65713 -0.0187805 5.04275 0.00530214C5.42837 0.0293848 5.80446 0.135145 6.14612 0.315574C6.48777 0.496004 6.78718 0.746982 7.0245 1.05188L9.82931 4.65517C10.3434 5.31613 10.5247 6.17711 10.3215 6.98965L9.4668 10.4117C9.4226 10.5889 9.42499 10.7746 9.47373 10.9506C9.52246 11.1267 9.61589 11.2871 9.74493 11.4164L13.5842 15.2557C13.7136 15.385 13.8743 15.4785 14.0507 15.5273C14.227 15.576 14.413 15.5783 14.5905 15.5338L18.0109 14.6791C18.4119 14.5788 18.8304 14.571 19.2349 14.6563C19.6393 14.7416 20.0191 14.9177 20.3454 15.1713L23.9487 17.9745C25.2441 18.9824 25.3628 20.8965 24.2034 22.0544L22.5877 23.6701C21.4314 24.8264 19.7032 25.3342 18.0922 24.767C13.9689 23.3162 10.2251 20.9557 7.13856 17.8605C4.04356 14.7744 1.68301 11.0312 0.231996 6.9084C-0.333654 5.29895 0.174181 3.56918 1.33048 2.41288L2.94618 0.797178Z" fill="white"/>
</svg>
