<svg width="17" height="27" viewBox="0 0 17 27" fill="none" xmlns="http://www.w3.org/2000/svg">
<path d="M0.767031 15.648L13.1015 26.439C14.5528 27.7125 16.832 26.6775 16.832 24.7447V3.16271C16.8324 2.73016 16.7081 2.30667 16.474 1.94296C16.2398 1.57925 15.9058 1.29073 15.512 1.11195C15.1181 0.933176 14.681 0.871723 14.2531 0.934952C13.8252 0.99818 13.4246 1.18341 13.0993 1.46846L0.769281 12.2595C0.527611 12.4706 0.333916 12.7311 0.201202 13.0233C0.0684891 13.3155 -0.000173569 13.6328 -0.000173569 13.9537C-0.000173569 14.2747 0.0684891 14.5919 0.201202 14.8841C0.333916 15.1763 0.527611 15.4368 0.769281 15.648H0.767031Z" fill="#129E47"/>
</svg>
