<svg width="17" height="27" viewBox="0 0 17 27" fill="none" xmlns="http://www.w3.org/2000/svg">
<path d="M16.064 15.648L3.72952 26.439C2.27827 27.7125 -0.000975735 26.6775 -0.000975735 24.7447L-0.000975735 3.16271C-0.0013466 2.73016 0.122971 2.30667 0.357091 1.94296C0.59121 1.57925 0.925207 1.29073 1.31908 1.11195C1.71296 0.933176 2.15002 0.871723 2.57792 0.934952C3.00583 0.99818 3.40643 1.18341 3.73177 1.46846L16.0618 12.2595C16.3034 12.4706 16.4971 12.7311 16.6299 13.0233C16.7626 13.3155 16.8312 13.6328 16.8312 13.9537C16.8312 14.2747 16.7626 14.5919 16.6299 14.8841C16.4971 15.1763 16.3034 15.4368 16.0618 15.648H16.064Z" fill="#129E47"/>
</svg>
