<svg width="35" height="35" viewBox="0 0 35 35" fill="none" xmlns="http://www.w3.org/2000/svg">
<path d="M34.0041 17.2493C34.0041 26.4997 26.504 33.9987 17.252 33.9987C8.00007 33.9987 0.5 26.4997 0.5 17.2493C0.5 7.99901 8.00007 0.5 17.252 0.5C26.504 0.5 34.0041 7.99901 34.0041 17.2493Z" fill="#129E47" stroke="white"/>
<path d="M15.3949 19.8564V11.8961H17.5049V16.2266V16.784L18.059 16.7237C19.173 16.6024 20.2519 15.9117 21.1207 14.9834C21.9132 14.1365 22.5703 13.0516 22.9548 11.8961H25.0758C24.4268 14.4036 22.5578 16.2638 21.2107 17.0541L20.3964 17.5318L21.2491 17.937C22.5993 18.5787 24.7383 20.2102 25.7411 23.1127H23.3508C22.4989 20.8061 20.5889 19.0063 18.0527 18.7498L17.5024 18.6941V19.2472V23.1095C14.3919 23.0808 11.9932 21.9864 10.3395 20.0398C8.73029 18.1456 7.78289 15.3924 7.63352 11.8936H9.93773C10.1795 17.2887 12.6113 19.7917 14.7717 20.341L15.3949 20.4995V19.8564Z" fill="white" stroke="white"/>
</svg>
