<svg width="43" height="43" viewBox="0 0 43 43" fill="none" xmlns="http://www.w3.org/2000/svg">
<path d="M41.9385 21.5C41.9385 33.1042 32.656 42.5 21.2193 42.5C9.78251 42.5 0.5 33.1042 0.5 21.5C0.5 9.8958 9.78251 0.5 21.2193 0.5C32.656 0.5 41.9385 9.8958 41.9385 21.5Z" fill="white" stroke="#129E47"/>
<path d="M19.0856 24.7483V14.7031H21.9663V20.224V20.7813L22.5203 20.721C23.8701 20.5743 25.1909 19.7353 26.2637 18.5904C27.2601 17.5268 28.0833 16.1575 28.5531 14.7031H31.4481C30.6662 17.945 28.2593 20.3479 26.5295 21.3616L25.7141 21.8394L26.5679 22.2447C28.3007 23.0673 31.0526 25.1724 32.2922 28.9301H29.0502C28.0153 26.0515 25.6512 23.8085 22.5134 23.4915L21.9632 23.4359V23.989V28.927C17.9904 28.9192 14.9187 27.5399 12.8066 25.0565C10.7558 22.6452 9.56491 19.14 9.39562 14.7H12.5187C12.7883 21.4734 15.8228 24.5625 18.4626 25.2329L19.0856 25.3911V24.7483Z" fill="#129E47" stroke="#129E47"/>
</svg>
