<svg width="25" height="25" viewBox="0 0 25 25" fill="none" xmlns="http://www.w3.org/2000/svg">
<rect width="25" height="25" rx="12.5" fill="#FAFAFA"/>
<g clip-path="url(#clip0_110_41)">
<path d="M18.2321 14.6929C17.8599 14.2465 17.4219 13.8656 17.0076 13.461C16.6337 13.0964 16.6101 12.8848 16.9107 12.4639C17.2386 12.0046 17.5914 11.5629 17.9224 11.1056C18.2313 10.6782 18.5471 10.2521 18.7097 9.74038C18.8128 9.41485 18.7216 9.27106 18.3878 9.21407C18.3303 9.20409 18.2708 9.20357 18.2123 9.20357L16.2317 9.20124C15.9878 9.19762 15.853 9.30397 15.7667 9.52017C15.6502 9.81241 15.5302 10.1044 15.3914 10.3864C15.0766 11.0258 14.7251 11.6438 14.2322 12.1672C14.1235 12.2826 14.0033 12.4284 13.8217 12.3683C13.5945 12.2854 13.5275 11.9111 13.5312 11.7845L13.5293 9.49853C13.4853 9.17197 13.4128 9.02636 13.0886 8.96289L11.0313 8.96328C10.7566 8.96328 10.6189 9.06937 10.4723 9.24114C10.3877 9.34037 10.3622 9.40475 10.536 9.43765C10.8775 9.50242 11.0699 9.72341 11.1209 10.0658C11.2028 10.6128 11.1971 11.1621 11.1499 11.7113C11.1361 11.8717 11.1085 12.0317 11.0449 12.1814C10.9454 12.4168 10.7848 12.4647 10.5737 12.3199C10.3827 12.1888 10.2485 12.0038 10.1171 11.8181C9.6237 11.1209 9.23003 10.369 8.90903 9.57898C8.81628 9.35073 8.6563 9.21238 8.41445 9.20863C7.82025 9.19917 7.22593 9.19762 6.63173 9.20914C6.2742 9.21588 6.16759 9.38946 6.3132 9.71357C6.96037 11.1531 7.68074 12.5527 8.62106 13.8276C9.10386 14.4819 9.65815 15.0595 10.3742 15.4689C11.1858 15.9329 12.0594 16.0725 12.9795 16.0295C13.4104 16.0093 13.5398 15.8972 13.5597 15.4678C13.5732 15.174 13.6065 14.8819 13.7515 14.6179C13.8937 14.3588 14.1091 14.3095 14.3574 14.4706C14.4817 14.5513 14.5863 14.6541 14.6852 14.7624C14.9277 15.0276 15.1615 15.301 15.4132 15.5573C15.7289 15.8786 16.1029 16.0684 16.5731 16.0296L18.3934 16.03C18.6866 16.0108 18.8387 15.6512 18.6703 15.3239C18.552 15.0946 18.3969 14.8905 18.2321 14.6929Z" fill="black"/>
</g>
<defs>
<clipPath id="clip0_110_41">
<rect width="12.5" height="12.5" fill="white" transform="translate(6.25 6.25)"/>
</clipPath>
</defs>
</svg>
