<svg width="21" height="21" viewBox="0 0 21 21" fill="none" xmlns="http://www.w3.org/2000/svg">
<path d="M0.000244141 10.5C0.000244141 13.2848 1.10649 15.9555 3.07562 17.9246C5.04475 19.8938 7.71547 21 10.5002 21C13.285 21 15.9557 19.8938 17.9249 17.9246C19.894 15.9555 21.0002 13.2848 21.0002 10.5C21.0002 7.71523 19.894 5.04451 17.9249 3.07538C15.9557 1.10625 13.285 0 10.5002 0C7.71547 0 5.04475 1.10625 3.07562 3.07538C1.10649 5.04451 0.000244141 7.71523 0.000244141 10.5H0.000244141ZM7.74924 14.1789C7.68871 14.2416 7.61629 14.2916 7.53623 14.326C7.45616 14.3604 7.37005 14.3785 7.28291 14.3793C7.19578 14.38 7.10936 14.3634 7.02871 14.3304C6.94806 14.2974 6.87479 14.2487 6.81317 14.1871C6.75156 14.1255 6.70283 14.0522 6.66983 13.9715C6.63683 13.8909 6.62023 13.8045 6.62099 13.7173C6.62174 13.6302 6.63985 13.5441 6.67424 13.464C6.70863 13.384 6.75863 13.3115 6.82131 13.251L12.1973 7.875H8.56431C8.39026 7.875 8.22334 7.80586 8.10027 7.68279C7.9772 7.55972 7.90806 7.3928 7.90806 7.21875C7.90806 7.0447 7.9772 6.87778 8.10027 6.75471C8.22334 6.63164 8.39026 6.5625 8.56431 6.5625H13.7815C13.9555 6.5625 14.1225 6.63164 14.2455 6.75471C14.3686 6.87778 14.4377 7.0447 14.4377 7.21875V12.4359C14.4377 12.61 14.3686 12.7769 14.2455 12.9C14.1225 13.023 13.9555 13.0922 13.7815 13.0922C13.6074 13.0922 13.4405 13.023 13.3175 12.9C13.1944 12.7769 13.1252 12.61 13.1252 12.4359V8.80294L7.74924 14.1789Z" fill="white"/>
</svg>
