<svg width="43" height="43" viewBox="0 0 43 43" fill="none" xmlns="http://www.w3.org/2000/svg">
<path d="M42.5 21.5C42.5 33.1042 33.2175 42.5 21.7808 42.5C10.344 42.5 1.06152 33.1042 1.06152 21.5C1.06152 9.8958 10.344 0.5 21.7808 0.5C33.2175 0.5 42.5 9.8958 42.5 21.5Z" fill="white" stroke="#129E47"/>
<path d="M31.7667 16.1642L31.767 16.1651C31.9822 16.9768 32.096 18.2701 32.1536 19.3963C32.1821 19.952 32.1963 20.4545 32.2034 20.8181C32.207 20.9998 32.2087 21.1465 32.2096 21.2476C32.2101 21.2981 32.2103 21.3372 32.2104 21.3634L32.2105 21.3931L32.2105 21.4004L32.2105 21.4021V21.4025V21.4025V21.4026V21.4026V21.403L32.2105 21.4047L32.2105 21.412L32.2104 21.4416C32.2103 21.4679 32.2101 21.5069 32.2096 21.5574C32.2087 21.6583 32.207 21.805 32.2034 21.9865C32.1963 22.3499 32.1821 22.8521 32.1536 23.4076C32.096 24.5333 31.9822 25.8268 31.7669 26.6402L31.7667 26.6409C31.5598 27.4279 30.9465 28.0467 30.1765 28.2545L30.1758 28.2547C29.7992 28.357 29.093 28.4423 28.2029 28.5082C27.3271 28.573 26.3145 28.6164 25.3508 28.6455C24.3879 28.6745 23.4779 28.689 22.8083 28.6963C22.4736 28.6999 22.1993 28.7017 22.0087 28.7026C21.9134 28.7031 21.8391 28.7033 21.7887 28.7034L21.7314 28.7035L21.7169 28.7035L21.7133 28.7035H21.7124H21.7122L21.7122 29.2035L21.7121 28.7035H21.7119H21.7111L21.7075 28.7035L21.6929 28.7035L21.6356 28.7034C21.5852 28.7033 21.5109 28.7031 21.4157 28.7026C21.2251 28.7017 20.9508 28.6999 20.6161 28.6963C19.9465 28.689 19.0365 28.6745 18.0736 28.6455C17.1099 28.6164 16.0973 28.573 15.2214 28.5082C14.3314 28.4423 13.6251 28.357 13.2486 28.2547L13.2478 28.2545C12.4779 28.0467 11.8646 27.4279 11.6576 26.6409L11.6574 26.6402C11.4422 25.8268 11.3283 24.5333 11.2707 23.4076C11.2423 22.8521 11.2281 22.3499 11.221 21.9865C11.2174 21.805 11.2156 21.6583 11.2147 21.5574C11.2143 21.5069 11.2141 21.4679 11.214 21.4416L11.2139 21.412L11.2139 21.4047L11.2139 21.403L11.2139 21.4026V21.4026V21.4025V21.4025V21.4025L11.2139 21.4021L11.2139 21.4004L11.2139 21.3931L11.214 21.3635C11.2141 21.3372 11.2143 21.2982 11.2147 21.2477C11.2156 21.1467 11.2174 21.0001 11.221 20.8185C11.2281 20.4552 11.2423 19.953 11.2707 19.3975C11.3283 18.2718 11.4422 16.9783 11.6574 16.1649L11.6576 16.1642C11.8646 15.3771 12.4779 14.7584 13.2478 14.5506L13.2486 14.5504C13.6251 14.4481 14.3314 14.3628 15.2214 14.2969C16.0973 14.2321 17.1099 14.1887 18.0736 14.1596C19.0365 14.1306 19.9465 14.1161 20.6161 14.1088C20.9508 14.1052 21.2251 14.1034 21.4157 14.1025C21.5109 14.102 21.5852 14.1018 21.6356 14.1017L21.6929 14.1016L21.7075 14.1016L21.7111 14.1016L21.7119 14.1016H21.7121L21.7122 13.6016L21.7122 14.1016H21.7124L21.7133 14.1016L21.7169 14.1016L21.7314 14.1016L21.7887 14.1017C21.8391 14.1018 21.9134 14.102 22.0087 14.1025C22.1993 14.1034 22.4736 14.1052 22.8083 14.1088C23.4779 14.1161 24.3879 14.1306 25.3508 14.1596C26.3145 14.1887 27.3271 14.2321 28.2029 14.2969C29.093 14.3628 29.7992 14.4481 30.1758 14.5504L30.1765 14.5506C30.9465 14.7584 31.5598 15.3771 31.7667 16.1642ZM19.0138 24.7422V25.6139L19.7662 25.1738L25.4815 21.831L26.2194 21.3994L25.4815 20.9678L19.7662 17.625L19.0138 17.1849V18.0566V24.7422Z" fill="#129E47" stroke="#129E47"/>
</svg>
