<svg width="36" height="35" viewBox="0 0 36 35" fill="none" xmlns="http://www.w3.org/2000/svg">
<path d="M34.8323 17.5C34.8323 26.8956 27.3255 34.5 18.0803 34.5C8.83508 34.5 1.32822 26.8956 1.32822 17.5C1.32822 8.10441 8.83508 0.5 18.0803 0.5C27.3255 0.5 34.8323 8.10441 34.8323 17.5Z" fill="#129E47" stroke="white"/>
<path d="M26.1089 13.1794L26.1091 13.1804C26.2813 13.8306 26.3737 14.8745 26.4205 15.7915C26.4436 16.2425 26.4551 16.6505 26.4609 16.9458C26.4638 17.0933 26.4652 17.2124 26.4659 17.2944L26.4666 17.3883L26.4666 17.4122L26.4666 17.4181L26.4666 17.4194V17.4197V17.42L26.4666 17.4213L26.4666 17.4272L26.4666 17.4511L26.4659 17.5449C26.4652 17.6268 26.4638 17.7458 26.4609 17.8932C26.4551 18.1883 26.4436 18.5961 26.4205 19.047C26.3737 19.9636 26.2813 21.0076 26.1091 21.6592L26.1089 21.66C25.9489 22.269 25.4749 22.7468 24.8819 22.9071L24.8812 22.9073C24.5849 22.9879 24.0193 23.0569 23.2949 23.1106C22.5847 23.1632 21.763 23.1985 20.9801 23.2221C20.198 23.2457 19.4588 23.2575 18.9148 23.2634C18.6429 23.2664 18.42 23.2679 18.2652 23.2686L18.0866 23.2692L18.0401 23.2693L18.0284 23.2693L18.0255 23.2693H18.0248H18.0246L18.0246 23.7693L18.0246 23.2693H18.0244H18.0237L18.0208 23.2693L18.0091 23.2693L17.9626 23.2692L17.784 23.2686C17.6292 23.2679 17.4063 23.2664 17.1344 23.2634C16.5904 23.2575 15.8512 23.2457 15.0691 23.2221C14.2862 23.1985 13.4645 23.1632 12.7543 23.1106C12.0299 23.0569 11.4643 22.9879 11.168 22.9073L11.1673 22.9071C10.5743 22.7468 10.1003 22.269 9.94031 21.66L9.94011 21.6592C9.76786 21.0076 9.67552 19.9636 9.62867 19.047C9.60562 18.5961 9.59407 18.1883 9.5883 17.8932C9.58542 17.7458 9.58398 17.6268 9.58326 17.5449L9.58264 17.4511L9.58256 17.4272L9.58255 17.4213L9.58255 17.42L9.58255 17.4197V17.4197V17.4197V17.4197V17.4197L9.58255 17.4194L9.58255 17.4181L9.58256 17.4122L9.58264 17.3883L9.58326 17.2945C9.58398 17.2126 9.58542 17.0936 9.5883 16.9462C9.59407 16.6511 9.60562 16.2433 9.62867 15.7924C9.67552 14.8758 9.76786 13.8318 9.94011 13.1802L9.94031 13.1794C10.1003 12.5704 10.5743 12.0926 11.1673 11.9323L11.168 11.9321C11.4643 11.8515 12.0299 11.7825 12.7543 11.7288C13.4645 11.6762 14.2862 11.6409 15.0691 11.6173C15.8512 11.5937 16.5904 11.5819 17.1344 11.576C17.4063 11.573 17.6292 11.5715 17.784 11.5708L17.9626 11.5702L18.0091 11.5701L18.0208 11.5701L18.0237 11.5701L18.0244 11.5701H18.0246L18.0246 11.0701L18.0246 11.5701H18.0248L18.0255 11.5701L18.0284 11.5701L18.0401 11.5701L18.0866 11.5702L18.2652 11.5708C18.42 11.5715 18.6429 11.573 18.9148 11.576C19.4588 11.5819 20.198 11.5937 20.9801 11.6173C21.763 11.6409 22.5847 11.6762 23.2949 11.7288C24.0193 11.7825 24.5849 11.8515 24.8812 11.9321L24.8819 11.9323C25.4749 12.0926 25.9489 12.5704 26.1089 13.1794ZM15.7372 20.138V21.0102L16.4898 20.5695L21.1366 17.8486L21.8734 17.4171L21.1366 16.9857L16.4898 14.2648L15.7372 13.824V14.6962V20.138Z" fill="white" stroke="white"/>
</svg>
