<svg width="37" height="87" viewBox="0 0 37 87" fill="none" xmlns="http://www.w3.org/2000/svg">
<path d="M11.6602 12.5839C11.6602 17.6131 14.3117 22.1034 18.4981 25.1776C22.6839 22.1034 25.3403 17.6131 25.3403 12.5839C25.3403 7.56435 22.6839 3.07408 18.4981 0C14.3117 3.07408 11.6602 7.56435 11.6602 12.5839Z" fill="#129E47"/>
<path d="M22.9201 25.2645C19.3015 28.8223 17.9438 33.8495 18.7002 38.9375C23.8705 39.6732 28.9809 38.3417 32.5915 34.7923C36.2057 31.2369 37.5506 26.2131 36.7985 21.1276C31.6289 20.3912 26.5263 21.7168 22.9201 25.2645Z" fill="#129E47"/>
<path d="M4.41892 34.7925C0.804057 31.2371 -0.549418 26.2133 0.198955 21.1278C5.37283 20.3914 10.4834 21.717 14.0896 25.2725C17.7002 28.8225 19.0489 33.8497 18.2924 38.9377C13.1314 39.6734 8.0246 38.3419 4.41892 34.7925Z" fill="#129E47"/>
<path d="M22.9201 41.0895C19.3015 44.6456 17.9438 49.6728 18.7002 54.7586C23.8705 55.4923 28.9809 54.1668 32.5915 50.6132C36.2057 47.062 37.5506 42.0365 36.7985 36.9485C31.6289 36.2128 26.5263 37.5378 22.9201 41.0895Z" fill="#129E47"/>
<path d="M4.41892 50.6131C0.804057 47.062 -0.549418 42.0364 0.198955 36.9485C5.37283 36.2128 10.4834 37.5378 14.0896 41.0913C17.7002 44.6456 19.0489 49.6728 18.2924 54.7585C13.1314 55.4923 8.0246 54.1668 4.41892 50.6131Z" fill="#129E47"/>
<path d="M22.9201 56.9126C19.3015 60.4638 17.9438 65.4893 18.7002 70.575C23.8705 71.313 28.9809 69.9857 32.5915 66.4321C36.2057 62.8851 37.5506 57.8613 36.7985 52.7758C31.6289 52.0335 26.5263 53.3568 22.9201 56.9126Z" fill="#129E47"/>
<path d="M4.41892 66.4362C0.804057 62.8851 -0.549418 57.8613 0.198955 52.7758C5.37283 52.0335 10.4834 53.3568 14.0896 56.9126C17.7002 60.4638 19.0489 65.4893 18.2924 70.575C13.1314 71.313 8.0246 69.9857 4.41892 66.4362Z" fill="#129E47"/>
<path d="M22.9201 73.1408C19.3015 76.692 17.9438 81.7175 18.7002 86.803C23.8705 87.5411 28.9809 86.2139 32.5915 82.6602C36.2057 79.1132 37.5506 74.0895 36.7985 69.0039C31.6289 68.2616 26.5263 69.5847 22.9201 73.1408Z" fill="#129E47"/>
<path d="M4.41892 82.6644C0.804057 79.1132 -0.549418 74.0895 0.198955 69.0039C5.37283 68.2616 10.4834 69.5847 14.0896 73.1408C17.7002 76.692 19.0489 81.7175 18.2924 86.803C13.1314 87.5411 8.0246 86.2139 4.41892 82.6644Z" fill="#129E47"/>
</svg>
