<svg width="48" height="85" viewBox="0 0 48 85" fill="none" xmlns="http://www.w3.org/2000/svg">
<path fill-rule="evenodd" clip-rule="evenodd" d="M44.6111 81.7004C42.2774 78.003 40.1764 76.9963 41.4066 71.7714L43.9148 68.3554C47.158 65.1139 46.1878 58.7207 43.7101 55.1872C40.6102 50.77 36.9973 49.7217 31.805 50.1089L29.9174 37.8609C31.2671 35.8499 33.0178 34.0622 33.5868 31.6755C34.2014 29.1011 34.8999 26.8464 35.972 24.4232C40.5736 13.9937 35.1034 15.4885 35.027 8.89636C34.9601 3.26303 29.3999 -2.26242 24.3105 0.946755C22.4193 2.13886 20.679 4.63634 20.1817 6.80765C19.8008 8.49029 20.4606 9.80376 20.1615 11.364C19.9277 12.5998 19.2226 13.5763 18.8119 14.7721C14.9554 14.4203 14.2628 9.91282 11.7785 8.3792C8.57823 6.39938 4.89499 5.99752 2.00974 8.7723C-0.571167 11.2576 -0.566092 16.0394 1.45198 18.8115C4.63852 23.1851 1.71064 24.0714 4.99057 28.7043C2.06624 29.2076 0.372481 31.8383 1.28974 34.668C2.12173 37.2249 4.28681 37.8008 5.69924 40.4165C7.18187 43.1685 8.70511 43.673 11.7018 44.1728C14.1259 44.5794 17.2399 45.9758 19.4539 45.7816L20.9932 45.7054L27.0487 51.8918C23.7365 54.1918 21.0194 57.7066 21.286 61.9462C21.5009 65.3593 24.7657 70.5846 27.5754 72.5627C32.1921 75.813 35.9894 71.7849 39.0355 76.6722C40.4616 78.9571 44.3875 84.6065 47.5152 84.2685L44.6111 81.7004ZM8.44103 34.8796C8.0428 34.7294 7.64947 34.6014 7.26612 34.5165C7.65065 34.603 8.04161 34.7284 8.43629 34.8774L8.44103 34.8796L21.1062 45.2845L8.44103 34.8796ZM21.9911 45.1883L20.7166 40.1247L20.531 40.0782L20.6954 40.0281L20.7166 40.1247L21.9757 40.4253L25.5081 48.6314L21.9911 45.1883ZM23.5869 40.1775L24.9124 35.1427L28.3732 38.2777L29.8372 50.666L29.0935 50.899C27.7511 51.2282 23.3181 40.6328 23.5869 40.1775Z" fill="#129E47"/>
</svg>
