<svg width="60" height="60" viewBox="0 0 60 60" fill="none" xmlns="http://www.w3.org/2000/svg">
<path fill-rule="evenodd" clip-rule="evenodd" d="M30.0004 0C13.4324 0 0 13.4324 0 29.9998C0 46.5672 13.4324 60 30.0004 60C46.5676 60 60 46.5672 60 29.9998C60 13.4324 46.5676 0 30.0004 0ZM40.616 48.9594C39.9096 49.2628 39.072 49.5606 38.109 49.845C37.1408 50.131 36.0556 50.3658 34.849 50.5404C33.6444 50.7076 32.3518 50.794 30.9746 50.794C28.2844 50.794 25.8716 50.3346 23.7352 49.4184C21.599 48.5 19.7894 47.1438 18.3062 45.3688C16.825 43.5838 15.688 41.4112 14.8946 38.8466C14.1032 36.2816 13.705 33.3328 13.705 29.998C13.705 26.6668 14.1628 23.718 15.0752 21.155C15.9874 18.5844 17.2382 16.4118 18.823 14.6368C20.4062 12.8502 22.2698 11.5052 24.4078 10.5828C26.544 9.665 28.836 9.2056 31.2818 9.2056C32.7646 9.2056 34.1096 9.3326 35.3158 9.5786C36.5202 9.8284 37.573 10.1084 38.4702 10.4162C39.3658 10.7218 40.1052 11.0462 40.6914 11.388C41.2774 11.73 41.6922 11.9854 41.9342 12.1392L40.0204 18.054C39.193 17.4758 38.0114 16.9326 36.4784 16.4118C34.9448 15.8972 33.2814 15.6378 31.4892 15.6378C29.939 15.6378 28.4902 15.9318 27.1452 16.5312C25.8024 17.1246 24.6404 18.0122 23.6584 19.2012C22.6752 20.3906 21.9046 21.8772 21.3552 23.6834C20.8054 25.4774 20.5288 27.5696 20.5288 29.9424C20.5288 32.048 20.7442 33.9864 21.1746 35.7456C21.6052 37.5056 22.2698 39.0312 23.1648 40.3082C24.062 41.5958 25.199 42.589 26.577 43.2994C27.9582 44.0064 29.6082 44.3584 31.541 44.3584C33.852 44.3584 35.729 44.1046 37.1776 43.5838C38.6242 43.0668 39.7422 42.5794 40.5396 42.1184L42.295 48.0394C41.8802 48.3466 41.3232 48.6516 40.616 48.9594Z" fill="#129E47"/>
</svg>
