<svg width="64" height="79" viewBox="0 0 64 79" fill="none" xmlns="http://www.w3.org/2000/svg">
<path fill-rule="evenodd" clip-rule="evenodd" d="M1.43066 0C2.01258 6.19308 6.28003 11.5456 11.1161 14.5166C12.9642 15.6535 16.0862 16.7158 18.896 17.0271C20.3398 17.1822 21.8569 17.1614 23.4862 16.9968C24.2914 16.9091 28.1907 16.1067 28.6482 15.6319C29.2538 15.008 27.6832 11.6767 27.2869 10.9823C26.5263 9.6537 25.5228 8.61243 24.5147 7.8016C22.5345 6.20836 20.162 5.3409 17.1585 4.61249C12.5389 3.48405 9.82521 3.10773 5.18266 1.47052L1.43066 0Z" fill="#129E47"/>
<path fill-rule="evenodd" clip-rule="evenodd" d="M63.3375 39.1901C62.7854 36.0724 61.5368 32.7885 60.0008 30.4792C54.8465 22.7266 49.0515 20.0781 46.567 19.4177C43.8723 18.7045 40.6357 18.1847 37.3434 17.8339C36.7785 17.7044 36.2439 17.6346 35.7744 17.6438C34.6698 17.4887 32.7141 17.4273 30.3163 17.5129C29.9906 16.4674 29.6498 15.3859 29.5903 15.0088C29.3412 14.1055 29.2112 13.5741 28.5562 13.1719C27.7746 12.6863 26.9856 12.6961 26.3325 13.2572C25.6025 14.4831 26.955 16.223 27.2687 17.293C27.311 17.3499 27.386 17.4847 27.4737 17.6725C20.7935 18.1771 12.2687 19.7461 8.1892 23.2844C4.30322 26.6544 1.4112 31.6577 0.388262 38.5507C-0.672952 45.7053 0.535801 53.2206 2.86452 59.1722C3.99644 62.0543 5.49257 64.5342 7.05754 66.7753C8.02039 68.1565 11.4489 72.2984 12.6536 72.9109C16.2733 76.2636 22.4079 79.0906 28.9698 78.6071C30.6132 78.6484 31.7029 77.4247 32.444 77.2066C33.7769 76.814 33.875 76.8559 36.133 78.491C42.9589 79.5401 46.2456 79.2025 50.7922 75.2239C54.3813 72.0838 56.9386 68.9681 59.5409 64.3085C63.6743 56.9359 64.9192 48.0525 63.3375 39.1901Z" fill="#129E47"/>
</svg>
